<svg id="Layer_1" data-name="Layer 1" xmlns="http://www.w3.org/2000/svg" viewBox="0 0 125 125"><defs><style>.cls-1,.cls-3{fill:none;stroke-linecap:round;stroke-miterlimit:10;}.cls-1{stroke:#fff;stroke-width:3px;}.cls-2{fill:#231f20;}.cls-3{stroke:#f0f1f1;stroke-width:2px;}</style></defs><polyline class="cls-1" points="90.9 35.49 76.27 20.87 61.67 35.47"/><circle class="cls-2" cx="62.12" cy="39.65" r="37.65"/><path class="cls-3" d="M70.65,38.92s-9.5-9.53,6.57-16C77.22,23,85.3,35,70.65,38.92Z"/><polyline class="cls-3" points="48 29.42 61.63 57 75.23 29.42"/><path class="cls-2" d="M31.4,96.35l-1.85-5.71h1.29l1.27,4h0l1.29-4h1.29l-1.89,5.71Z"/><path class="cls-2" d="M40.27,90.64v1h-3v1.23H40v1H37.26v1.4h3.08v1.06H36V90.64Z"/><path class="cls-2" d="M45.37,96.31a2.2,2.2,0,0,1-.83.17,3,3,0,0,1-1.18-.23,2.54,2.54,0,0,1-.88-.63,2.84,2.84,0,0,1-.55-.94,3.4,3.4,0,0,1-.19-1.16,3.5,3.5,0,0,1,.19-1.19,2.94,2.94,0,0,1,.55-1,2.7,2.7,0,0,1,.88-.64,3,3,0,0,1,1.18-.23,3.09,3.09,0,0,1,.86.13,2.5,2.5,0,0,1,.74.39,2.23,2.23,0,0,1,.55.63,2.16,2.16,0,0,1,.26.87h-1.2a1.19,1.19,0,0,0-.43-.72,1.25,1.25,0,0,0-.78-.24,1.47,1.47,0,0,0-.72.16,1.55,1.55,0,0,0-.48.44,2,2,0,0,0-.26.63,2.92,2.92,0,0,0-.09.73,2.74,2.74,0,0,0,.09.7,1.85,1.85,0,0,0,.26.61,1.55,1.55,0,0,0,.48.44,1.47,1.47,0,0,0,.72.16,1.38,1.38,0,0,0,1-.32,1.31,1.31,0,0,0,.39-.91H44.64v-.94H47v3.09h-.8l-.13-.65A1.91,1.91,0,0,1,45.37,96.31Z"/><path class="cls-2" d="M51.7,90.64l2.14,5.71h-1.3l-.44-1.27H50l-.45,1.27H48.26l2.16-5.71Zm.08,3.5-.72-2.09h0l-.74,2.09Z"/><path class="cls-2" d="M56.38,90.64l2.39,3.83h0V90.64H60v5.71H58.7l-2.37-3.82h0v3.82H55.14V90.64Z"/><path class="cls-2" d="M66.66,90.64,68,94.57h0l1.26-3.93H71v5.71H69.86v-4h0l-1.4,4h-1l-1.4-4h0v4H64.89V90.64Z"/><path class="cls-2" d="M77.22,90.64v1h-3v1.23H77v1H74.2v1.4h3.08v1.06H72.94V90.64Z"/><path class="cls-2" d="M81.78,90.64l2.13,5.71h-1.3l-.43-1.27H80l-.45,1.27H78.33l2.16-5.71Zm.07,3.5-.72-2.09h0l-.74,2.09Z"/><path class="cls-2" d="M86.46,90.64v4.65h2.79v1.06h-4V90.64Z"/><path class="cls-2" d="M91.71,94.94a.9.9,0,0,0,.28.33,1.22,1.22,0,0,0,.4.18,2,2,0,0,0,.48.06l.36,0a1.08,1.08,0,0,0,.36-.11.67.67,0,0,0,.28-.22A.51.51,0,0,0,94,94.8a.5.5,0,0,0-.14-.38,1.44,1.44,0,0,0-.39-.24A4.53,4.53,0,0,0,92.9,94c-.2,0-.4-.1-.61-.16a6.55,6.55,0,0,1-.63-.19,2.35,2.35,0,0,1-.54-.3,1.57,1.57,0,0,1-.39-.46,1.41,1.41,0,0,1-.15-.67,1.53,1.53,0,0,1,.19-.76,1.7,1.7,0,0,1,.49-.54,2,2,0,0,1,.69-.32,2.92,2.92,0,0,1,.77-.11,4,4,0,0,1,.86.1,2.12,2.12,0,0,1,.73.33,1.55,1.55,0,0,1,.51.57,1.68,1.68,0,0,1,.19.84H93.79a.87.87,0,0,0-.11-.42.78.78,0,0,0-.24-.27,1,1,0,0,0-.35-.13,1.91,1.91,0,0,0-.43,0,1.53,1.53,0,0,0-.3,0,1,1,0,0,0-.28.11.64.64,0,0,0-.2.2.57.57,0,0,0-.08.31.54.54,0,0,0,.06.27.62.62,0,0,0,.26.19,3,3,0,0,0,.52.18l.86.22.45.12a1.89,1.89,0,0,1,.56.26,1.8,1.8,0,0,1,.49.5,1.41,1.41,0,0,1,.2.78,1.73,1.73,0,0,1-.15.73,1.5,1.5,0,0,1-.45.58,2.2,2.2,0,0,1-.75.38,3.51,3.51,0,0,1-1,.14,3.44,3.44,0,0,1-.91-.12,2.48,2.48,0,0,1-.79-.36,2.06,2.06,0,0,1-.54-.63,2,2,0,0,1-.19-.92h1.22A1,1,0,0,0,91.71,94.94Z"/><path class="cls-2" d="M41,100.64l2.13,5.71h-1.3l-.43-1.27H39.26l-.45,1.27H37.55l2.16-5.71Zm.07,3.5-.72-2.09h0l-.74,2.09Z"/><path class="cls-2" d="M45.3,106.35l-1.85-5.71h1.29l1.27,4h0l1.29-4h1.29l-1.89,5.71Z"/><path class="cls-2" d="M52.38,100.64l2.14,5.71H53.21l-.43-1.27H50.64l-.44,1.27H48.93l2.16-5.71Zm.07,3.5-.72-2.09h0L51,104.14Z"/><path class="cls-2" d="M57.07,100.64v5.71H55.81v-5.71Z"/><path class="cls-2" d="M60.23,100.64v4.65H63v1.06H59v-5.71Z"/><path class="cls-2" d="M67.36,100.64l2.14,5.71H68.2l-.44-1.27H65.63l-.45,1.27H63.92l2.16-5.71Zm.08,3.5-.72-2.09h0L66,104.14Z"/><path class="cls-2" d="M73.48,100.64a3.48,3.48,0,0,1,.75.07,1.63,1.63,0,0,1,.57.24,1.13,1.13,0,0,1,.38.43,1.67,1.67,0,0,1,.13.67,1.25,1.25,0,0,1-.2.72,1.4,1.4,0,0,1-.58.48,1.33,1.33,0,0,1,.79.53,1.73,1.73,0,0,1,.09,1.66A1.5,1.5,0,0,1,75,106a2,2,0,0,1-.65.29,2.66,2.66,0,0,1-.75.1H70.8v-5.71ZM73.32,103a.91.91,0,0,0,.56-.16.62.62,0,0,0,.21-.52.67.67,0,0,0-.07-.33.61.61,0,0,0-.19-.2.77.77,0,0,0-.28-.1,1.66,1.66,0,0,0-.32,0H72.05V103Zm.08,2.42a2,2,0,0,0,.35,0,1.1,1.1,0,0,0,.29-.12.58.58,0,0,0,.21-.23.82.82,0,0,0,.07-.37.77.77,0,0,0-.24-.63,1.12,1.12,0,0,0-.66-.18H72.05v1.56Z"/><path class="cls-2" d="M78.48,100.64v4.65h2.79v1.06h-4v-5.71Z"/><path class="cls-2" d="M87,100.64v1H84v1.23H86.8v1H84v1.4h3.08v1.06H82.77v-5.71Z"/></svg>