<svg id="Layer_1" data-name="Layer 1" xmlns="http://www.w3.org/2000/svg" viewBox="0 0 125 125"><defs><style>.cls-1{fill:#231f20;}.cls-2{fill:#241f20;stroke:#fff;stroke-miterlimit:10;stroke-width:2px;}.cls-3{font-size:14.41px;fill:#fff;font-family:Shentox-Bold, Shentox;font-weight:700;}</style></defs><circle class="cls-1" cx="61.88" cy="39.65" r="37.65"/><rect class="cls-2" x="40.9" y="19.84" width="39.56" height="31.6" rx="3.57" transform="translate(-4.59 9.32) rotate(-8.46)"/><rect class="cls-2" x="42.43" y="25.71" width="39.56" height="31.6" rx="3.57"/><text class="cls-3" transform="translate(51.41 45.81)">50</text><text class="cls-3" transform="translate(67.83 45.94)">+</text><path class="cls-1" d="M43,91.69,42.82,93h0a1.51,1.51,0,0,1,.49-.33,1.89,1.89,0,0,1,.6-.1,1.75,1.75,0,0,1,.74.15,1.68,1.68,0,0,1,.54.41,1.71,1.71,0,0,1,.33.61,2.21,2.21,0,0,1,.12.74,2,2,0,0,1-.17.8,2,2,0,0,1-.45.64,1.91,1.91,0,0,1-.66.42,2,2,0,0,1-.8.14,2.88,2.88,0,0,1-.78-.1,2.06,2.06,0,0,1-.66-.34,1.63,1.63,0,0,1-.46-.55,1.59,1.59,0,0,1-.18-.77h1.14a.92.92,0,0,0,.28.61.93.93,0,0,0,.64.23.79.79,0,0,0,.4-.1.89.89,0,0,0,.3-.24,1,1,0,0,0,.2-.34,1.39,1.39,0,0,0,.06-.4,1.35,1.35,0,0,0-.06-.41,1,1,0,0,0-.19-.34,1,1,0,0,0-.31-.22.84.84,0,0,0-.4-.08.93.93,0,0,0-.5.11,1,1,0,0,0-.36.34h-1l.55-3.1h3.13v.94Z"/><path class="cls-1" d="M46.94,92.15a2.32,2.32,0,0,1,.44-.89,1.67,1.67,0,0,1,.65-.48,2.3,2.3,0,0,1,.79-.14,2.36,2.36,0,0,1,.8.14,1.75,1.75,0,0,1,.65.48,2.48,2.48,0,0,1,.45.89,4.93,4.93,0,0,1,.16,1.38,5.09,5.09,0,0,1-.16,1.4,2.37,2.37,0,0,1-.45.9,1.75,1.75,0,0,1-.65.48,2.14,2.14,0,0,1-.8.14,2.09,2.09,0,0,1-.79-.14,1.67,1.67,0,0,1-.65-.48,2.23,2.23,0,0,1-.44-.9,5.05,5.05,0,0,1-.17-1.4A4.9,4.9,0,0,1,46.94,92.15Zm1,2a3.52,3.52,0,0,0,.1.65,1.52,1.52,0,0,0,.27.54.65.65,0,0,0,.53.23.68.68,0,0,0,.54-.23,1.37,1.37,0,0,0,.27-.54,2.84,2.84,0,0,0,.1-.65c0-.23,0-.42,0-.58s0-.22,0-.35a3.81,3.81,0,0,0-.11-.85,1.44,1.44,0,0,0-.15-.38.87.87,0,0,0-.27-.27.71.71,0,0,0-.39-.11.69.69,0,0,0-.39.11,1,1,0,0,0-.26.27,1.88,1.88,0,0,0-.15.38,3.81,3.81,0,0,0-.11.85v.35C47.91,93.69,47.91,93.88,47.92,94.11Z"/><path class="cls-1" d="M56.28,93.9v.86h-1.6v1.59h-.85V94.76H52.24V93.9h1.59V92.31h.85V93.9Z"/><path class="cls-1" d="M62.28,90.64v2.19H64.6V90.64h1.25v5.71H64.6V93.89H62.28v2.46H61V90.64Z"/><path class="cls-1" d="M69,90.64v5.71H67.76V90.64Z"/><path class="cls-1" d="M74.3,96.31a2.19,2.19,0,0,1-.82.17,2.92,2.92,0,0,1-1.18-.23,2.48,2.48,0,0,1-.89-.63,2.84,2.84,0,0,1-.55-.94,3.4,3.4,0,0,1-.19-1.16,3.5,3.5,0,0,1,.19-1.19,2.94,2.94,0,0,1,.55-1,2.64,2.64,0,0,1,.89-.64,2.92,2.92,0,0,1,1.18-.23,3.07,3.07,0,0,1,.85.13,2.5,2.5,0,0,1,.74.39,2.09,2.09,0,0,1,.55.63,2.16,2.16,0,0,1,.26.87h-1.2a1.19,1.19,0,0,0-.43-.72,1.24,1.24,0,0,0-.77-.24,1.42,1.42,0,0,0-.72.16,1.36,1.36,0,0,0-.48.44,1.77,1.77,0,0,0-.27.63,2.92,2.92,0,0,0-.09.73,2.74,2.74,0,0,0,.09.7,1.68,1.68,0,0,0,.27.61,1.36,1.36,0,0,0,.48.44,1.42,1.42,0,0,0,.72.16,1.37,1.37,0,0,0,1-.32,1.36,1.36,0,0,0,.4-.91H73.57v-.94H76v3.09h-.8L75,95.7A1.91,1.91,0,0,1,74.3,96.31Z"/><path class="cls-1" d="M79,90.64v2.19h2.32V90.64h1.25v5.71H81.36V93.89H79v2.46H77.79V90.64Z"/><path class="cls-1" d="M27.7,100.64a2.44,2.44,0,0,1,.91.15,1.74,1.74,0,0,1,.61.42,1.51,1.51,0,0,1,.35.58,2.2,2.2,0,0,1,.11.68,2.3,2.3,0,0,1-.11.68,1.51,1.51,0,0,1-.35.58,1.74,1.74,0,0,1-.61.42,2.44,2.44,0,0,1-.91.15H26.38v2H25.12v-5.71Zm-.34,2.69a2.71,2.71,0,0,0,.41,0,1,1,0,0,0,.35-.12.63.63,0,0,0,.25-.26,1.12,1.12,0,0,0,0-.88.63.63,0,0,0-.25-.26,1,1,0,0,0-.35-.12,1.84,1.84,0,0,0-.41,0h-1v1.72Z"/><path class="cls-1" d="M34.34,100.64a1.85,1.85,0,0,1,.69.12,1.61,1.61,0,0,1,.53.34,1.53,1.53,0,0,1,.34.5,1.78,1.78,0,0,1,.11.61,1.76,1.76,0,0,1-.21.88,1.36,1.36,0,0,1-.69.56h0a.92.92,0,0,1,.38.2,1.07,1.07,0,0,1,.25.31,1.57,1.57,0,0,1,.14.4,3,3,0,0,1,.06.43c0,.09,0,.19,0,.32s0,.25,0,.37,0,.25.07.37a.86.86,0,0,0,.13.29H34.92a2,2,0,0,1-.12-.65c0-.25,0-.49-.08-.72a1.06,1.06,0,0,0-.27-.65.92.92,0,0,0-.68-.21H32.52v2.23H31.26v-5.71Zm-.45,2.58a.94.94,0,0,0,.65-.19.82.82,0,0,0,.22-.62.79.79,0,0,0-.22-.61,1,1,0,0,0-.65-.19H32.52v1.61Z"/><path class="cls-1" d="M37.78,102.33a2.94,2.94,0,0,1,.55-1,2.64,2.64,0,0,1,.89-.64,2.92,2.92,0,0,1,1.18-.23,3,3,0,0,1,1.18.23,2.6,2.6,0,0,1,.88.64,2.94,2.94,0,0,1,.55,1,3.5,3.5,0,0,1,.19,1.19,3.4,3.4,0,0,1-.19,1.16,2.84,2.84,0,0,1-.55.94,2.45,2.45,0,0,1-.88.63,3,3,0,0,1-1.18.23,2.92,2.92,0,0,1-1.18-.23,2.48,2.48,0,0,1-.89-.63,2.84,2.84,0,0,1-.55-.94,3.4,3.4,0,0,1-.19-1.16A3.5,3.5,0,0,1,37.78,102.33Zm1.15,1.89a1.68,1.68,0,0,0,.27.61,1.36,1.36,0,0,0,.48.44,1.42,1.42,0,0,0,.72.16,1.47,1.47,0,0,0,.72-.16,1.55,1.55,0,0,0,.48-.44,1.85,1.85,0,0,0,.26-.61,2.74,2.74,0,0,0,.09-.7,2.92,2.92,0,0,0-.09-.73,2,2,0,0,0-.26-.63,1.55,1.55,0,0,0-.48-.44,1.47,1.47,0,0,0-.72-.16,1.42,1.42,0,0,0-.72.16,1.36,1.36,0,0,0-.48.44,1.77,1.77,0,0,0-.27.63,2.92,2.92,0,0,0-.09.73A2.74,2.74,0,0,0,38.93,104.22Z"/><path class="cls-1" d="M44.41,101.69v-1h4.68v1H47.38v4.66H46.12v-4.66Z"/><path class="cls-1" d="M54.82,100.64v1h-3v1.23h2.77v1H51.8v1.4h3.08v1.06H50.55v-5.71Z"/><path class="cls-1" d="M57.79,100.64v5.71H56.53v-5.71Z"/><path class="cls-1" d="M60.94,100.64l2.38,3.83h0v-3.83h1.18v5.71H63.26l-2.38-3.82h0v3.82H59.69v-5.71Z"/><path class="cls-1" d="M71.21,100.64l1.34,3.93h0l1.27-3.93H75.6v5.71H74.42v-4h0l-1.4,4H72l-1.4-4h0v4H69.44v-5.71Z"/><path class="cls-1" d="M81.77,100.64v1h-3v1.23h2.76v1H78.76v1.4h3.08v1.06H77.5v-5.71Z"/><path class="cls-1" d="M86.33,100.64l2.14,5.71H87.16l-.43-1.27H84.6l-.45,1.27H82.88L85,100.64Zm.07,3.5-.72-2.09h0l-.75,2.09Z"/><path class="cls-1" d="M91,100.64v4.65H93.8v1.06h-4v-5.71Z"/><path class="cls-1" d="M96.27,104.94a1,1,0,0,0,.27.33,1.28,1.28,0,0,0,.41.18,1.86,1.86,0,0,0,.48.06l.36,0a1.15,1.15,0,0,0,.36-.11.74.74,0,0,0,.28-.22.56.56,0,0,0,.11-.35.5.5,0,0,0-.15-.38,1.44,1.44,0,0,0-.39-.24,5,5,0,0,0-.54-.17c-.2,0-.41-.1-.62-.16a6.36,6.36,0,0,1-.62-.19,2.42,2.42,0,0,1-.55-.3,1.53,1.53,0,0,1-.38-.46,1.41,1.41,0,0,1-.15-.67,1.43,1.43,0,0,1,.19-.76,1.59,1.59,0,0,1,.49-.54,1.82,1.82,0,0,1,.69-.32,2.85,2.85,0,0,1,.76-.11,4,4,0,0,1,.86.1,2.26,2.26,0,0,1,.74.33,1.75,1.75,0,0,1,.51.57,1.8,1.8,0,0,1,.18.84H98.35a1,1,0,0,0-.11-.42.78.78,0,0,0-.24-.27,1.05,1.05,0,0,0-.35-.13,2,2,0,0,0-.43,0,1.53,1.53,0,0,0-.3,0,.78.78,0,0,0-.28.11.64.64,0,0,0-.2.2.5.5,0,0,0-.09.31.54.54,0,0,0,.07.27.58.58,0,0,0,.25.19,3.39,3.39,0,0,0,.52.18l.87.22.44.12a2.06,2.06,0,0,1,.57.26,1.77,1.77,0,0,1,.48.5,1.33,1.33,0,0,1,.2.78,1.73,1.73,0,0,1-.15.73,1.5,1.5,0,0,1-.45.58,2.25,2.25,0,0,1-.74.38,3.56,3.56,0,0,1-1,.14,3.52,3.52,0,0,1-.92-.12,2.53,2.53,0,0,1-.78-.36,1.82,1.82,0,0,1-.54-.63,1.89,1.89,0,0,1-.19-.92h1.21A1,1,0,0,0,96.27,104.94Z"/></svg>