<svg id="Layer_1" data-name="Layer 1" xmlns="http://www.w3.org/2000/svg" viewBox="0 0 125 125"><defs><style>.cls-1{fill:#231f20;}.cls-2,.cls-3{fill:none;stroke:#fff;stroke-miterlimit:10;stroke-width:2px;}.cls-2{stroke-linecap:round;}</style></defs><circle class="cls-1" cx="62.51" cy="41.38" r="37.65"/><polyline class="cls-2" points="58.05 38.9 60.98 41.83 66.97 35.84"/><path class="cls-3" d="M82.37,38.42a7.85,7.85,0,0,0-7.85-7.84,9.1,9.1,0,0,0-1,.07,11.29,11.29,0,0,0-21.67-.12A7.84,7.84,0,1,0,50.35,46.1V56.86a3.06,3.06,0,0,0,3.06,3.06H71.83a3.06,3.06,0,0,0,3.06-3.06V46.25A7.84,7.84,0,0,0,82.37,38.42Z"/><line class="cls-3" x1="50.24" y1="56.86" x2="74.78" y2="56.86"/><path class="cls-1" d="M25.89,90.89l1.33,3.93h0l1.26-3.93h1.77V96.6H29.09v-4h0l-1.4,4h-1l-1.4-4h0v4H24.12V90.89Z"/><path class="cls-1" d="M35,90.89l2.14,5.71H35.85l-.43-1.27H33.29l-.45,1.27H31.57l2.16-5.71Zm.07,3.5-.72-2.09h0l-.75,2.09Z"/><path class="cls-1" d="M40.92,90.89a3.13,3.13,0,0,1,1,.17,2.37,2.37,0,0,1,.82.53,2.51,2.51,0,0,1,.54.88,3.58,3.58,0,0,1,.2,1.24,3.81,3.81,0,0,1-.16,1.15,2.68,2.68,0,0,1-.48.92,2.45,2.45,0,0,1-.81.6,2.73,2.73,0,0,1-1.14.22H38.45V90.89Zm-.09,4.65a1.89,1.89,0,0,0,.53-.08,1.11,1.11,0,0,0,.45-.3,1.32,1.32,0,0,0,.32-.53,2.32,2.32,0,0,0,.12-.8,3.12,3.12,0,0,0-.08-.78,1.54,1.54,0,0,0-.28-.59,1.07,1.07,0,0,0-.5-.38,2.05,2.05,0,0,0-.78-.14h-.9v3.6Z"/><path class="cls-1" d="M49.45,90.89v1h-3v1.23h2.77v1H46.44v1.4h3.08V96.6H45.18V90.89Z"/><path class="cls-1" d="M53.74,91.94v-1h4.68v1H56.71V96.6H55.45V91.94Z"/><path class="cls-1" d="M59.82,92.58a2.94,2.94,0,0,1,.55-1,2.64,2.64,0,0,1,.89-.64,3.14,3.14,0,0,1,2.36,0,2.6,2.6,0,0,1,.88.64,2.94,2.94,0,0,1,.55,1,3.54,3.54,0,0,1,.19,1.19,3.4,3.4,0,0,1-.19,1.16,2.74,2.74,0,0,1-.55.94,2.45,2.45,0,0,1-.88.63,3.14,3.14,0,0,1-2.36,0,2.48,2.48,0,0,1-.89-.63,2.74,2.74,0,0,1-.55-.94,3.4,3.4,0,0,1-.19-1.16A3.54,3.54,0,0,1,59.82,92.58ZM61,94.47a1.68,1.68,0,0,0,.27.61,1.36,1.36,0,0,0,.48.44,1.53,1.53,0,0,0,.72.16,1.59,1.59,0,0,0,.72-.16,1.55,1.55,0,0,0,.48-.44,1.85,1.85,0,0,0,.26-.61,2.74,2.74,0,0,0,.09-.7A2.92,2.92,0,0,0,63.9,93a2,2,0,0,0-.26-.63,1.55,1.55,0,0,0-.48-.44,1.47,1.47,0,0,0-.72-.16,1.42,1.42,0,0,0-.72.16,1.36,1.36,0,0,0-.48.44A1.77,1.77,0,0,0,61,93a2.92,2.92,0,0,0-.09.73A2.74,2.74,0,0,0,61,94.47Z"/><path class="cls-1" d="M69.87,92.58a2.94,2.94,0,0,1,.55-1,2.64,2.64,0,0,1,.89-.64,2.91,2.91,0,0,1,1.17-.23,3,3,0,0,1,1.19.23,2.6,2.6,0,0,1,.88.64,2.94,2.94,0,0,1,.55,1,3.54,3.54,0,0,1,.19,1.19,3.4,3.4,0,0,1-.19,1.16,2.74,2.74,0,0,1-.55.94,2.45,2.45,0,0,1-.88.63,3,3,0,0,1-1.19.23,2.91,2.91,0,0,1-1.17-.23,2.48,2.48,0,0,1-.89-.63,2.74,2.74,0,0,1-.55-.94,3.4,3.4,0,0,1-.19-1.16A3.54,3.54,0,0,1,69.87,92.58ZM71,94.47a1.68,1.68,0,0,0,.27.61,1.36,1.36,0,0,0,.48.44,1.52,1.52,0,0,0,.71.16,1.61,1.61,0,0,0,.73-.16,1.55,1.55,0,0,0,.48-.44,1.85,1.85,0,0,0,.26-.61,2.74,2.74,0,0,0,.09-.7A2.92,2.92,0,0,0,74,93a2,2,0,0,0-.26-.63,1.55,1.55,0,0,0-.48-.44,1.49,1.49,0,0,0-.73-.16,1.41,1.41,0,0,0-.71.16,1.36,1.36,0,0,0-.48.44A1.77,1.77,0,0,0,71,93a2.92,2.92,0,0,0-.09.73A2.74,2.74,0,0,0,71,94.47Z"/><path class="cls-1" d="M80,90.89a1.85,1.85,0,0,1,.69.12,1.61,1.61,0,0,1,.53.34,1.53,1.53,0,0,1,.34.5,1.78,1.78,0,0,1,.11.61,1.76,1.76,0,0,1-.21.88,1.36,1.36,0,0,1-.69.56h0a1.06,1.06,0,0,1,.38.2,1.07,1.07,0,0,1,.25.31,1.57,1.57,0,0,1,.14.4,3,3,0,0,1,.06.43c0,.09,0,.2,0,.32s0,.25,0,.37,0,.25.07.37a.86.86,0,0,0,.13.29H80.61a2,2,0,0,1-.12-.65c0-.25,0-.49-.08-.72a1.06,1.06,0,0,0-.27-.65.92.92,0,0,0-.68-.21H78.21V96.6H77V90.89Zm-.45,2.58a.94.94,0,0,0,.65-.19.82.82,0,0,0,.22-.62.79.79,0,0,0-.22-.61,1,1,0,0,0-.65-.19H78.21v1.61Z"/><path class="cls-1" d="M86,90.89a3.13,3.13,0,0,1,1,.17,2.37,2.37,0,0,1,.82.53,2.69,2.69,0,0,1,.55.88,3.59,3.59,0,0,1,.19,1.24,3.81,3.81,0,0,1-.16,1.15,2.68,2.68,0,0,1-.48.92,2.45,2.45,0,0,1-.81.6A2.67,2.67,0,0,1,86,96.6H83.52V90.89Zm-.09,4.65a1.89,1.89,0,0,0,.53-.08,1.22,1.22,0,0,0,.46-.3,1.59,1.59,0,0,0,.32-.53,2.32,2.32,0,0,0,.12-.8,3.1,3.1,0,0,0-.09-.78,1.53,1.53,0,0,0-.27-.59,1.15,1.15,0,0,0-.51-.38,2,2,0,0,0-.78-.14h-.9v3.6Z"/><path class="cls-1" d="M94.52,90.89v1h-3v1.23h2.77v1H91.51v1.4h3.08V96.6H90.25V90.89Z"/><path class="cls-1" d="M99.32,90.89A1.92,1.92,0,0,1,100,91a1.72,1.72,0,0,1,.53.34,1.5,1.5,0,0,1,.33.5,1.58,1.58,0,0,1,.12.61,1.76,1.76,0,0,1-.21.88,1.34,1.34,0,0,1-.7.56h0a1,1,0,0,1,.39.2,1.26,1.26,0,0,1,.25.31,1.57,1.57,0,0,1,.14.4,3,3,0,0,1,.06.43c0,.09,0,.2,0,.32l0,.37c0,.13,0,.25.06.37a.87.87,0,0,0,.14.29H99.9a2.34,2.34,0,0,1-.13-.65c0-.25,0-.49-.07-.72a1.06,1.06,0,0,0-.27-.65.94.94,0,0,0-.68-.21H97.49V96.6H96.24V90.89Zm-.45,2.58a1,1,0,0,0,.65-.19.82.82,0,0,0,.21-.62.79.79,0,0,0-.21-.61,1,1,0,0,0-.65-.19H97.49v1.61Z"/><path class="cls-1" d="M29.17,100.89a3.38,3.38,0,0,1,.74.07,1.69,1.69,0,0,1,.58.24,1.11,1.11,0,0,1,.37.43,1.51,1.51,0,0,1,.13.67,1.25,1.25,0,0,1-.2.72,1.4,1.4,0,0,1-.58.48A1.3,1.3,0,0,1,31,104a1.6,1.6,0,0,1,.26.91,1.49,1.49,0,0,1-.17.75,1.5,1.5,0,0,1-.45.52,1.93,1.93,0,0,1-.65.29,2.64,2.64,0,0,1-.74.1H26.48v-5.71ZM29,103.2a.9.9,0,0,0,.55-.16.62.62,0,0,0,.21-.52.67.67,0,0,0-.07-.33.61.61,0,0,0-.19-.2.77.77,0,0,0-.28-.1,1.66,1.66,0,0,0-.32,0H27.73v1.34Zm.07,2.42a2,2,0,0,0,.35,0,1.34,1.34,0,0,0,.3-.12.64.64,0,0,0,.2-.23.81.81,0,0,0,.08-.37.77.77,0,0,0-.25-.63,1.12,1.12,0,0,0-.66-.18H27.73v1.56Z"/><path class="cls-1" d="M32.29,100.89H33.7L35,103.14l1.33-2.25h1.4l-2.12,3.52v2.19H34.39v-2.22Z"/><path class="cls-1" d="M45.15,100.89a1.85,1.85,0,0,1,.69.12,1.61,1.61,0,0,1,.53.34,1.53,1.53,0,0,1,.34.5,1.78,1.78,0,0,1,.11.61,1.76,1.76,0,0,1-.21.88,1.36,1.36,0,0,1-.69.56h0a1.06,1.06,0,0,1,.38.2,1.07,1.07,0,0,1,.25.31,1.57,1.57,0,0,1,.14.4,3,3,0,0,1,.06.43c0,.09,0,.2,0,.32s0,.25,0,.37,0,.25.07.37a.86.86,0,0,0,.13.29H45.73a2,2,0,0,1-.12-.65c0-.25,0-.49-.08-.72a1.06,1.06,0,0,0-.27-.65.92.92,0,0,0-.68-.21H43.33v2.23H42.07v-5.71Zm-.45,2.58a.94.94,0,0,0,.65-.19.82.82,0,0,0,.22-.62.79.79,0,0,0-.22-.61,1,1,0,0,0-.65-.19H43.33v1.61Z"/><path class="cls-1" d="M52.92,100.89v1h-3v1.23h2.77v1H49.9v1.4H53v1.06H48.65v-5.71Z"/><path class="cls-1" d="M57.48,100.89l2.13,5.71h-1.3l-.43-1.27H55.74l-.45,1.27H54l2.16-5.71Zm.07,3.5-.72-2.09h0l-.74,2.09Z"/><path class="cls-1" d="M62.17,100.89v4.65H65v1.06h-4v-5.71Z"/><path class="cls-1" d="M73.14,102.41a1.18,1.18,0,0,0-.28-.31,1.11,1.11,0,0,0-.38-.22,1.31,1.31,0,0,0-.44-.07,1.42,1.42,0,0,0-.72.16,1.36,1.36,0,0,0-.48.44,2,2,0,0,0-.27.63,2.92,2.92,0,0,0-.08.73,2.74,2.74,0,0,0,.08.7,1.86,1.86,0,0,0,.27.61,1.36,1.36,0,0,0,.48.44,1.53,1.53,0,0,0,.72.16,1.19,1.19,0,0,0,.9-.35,1.64,1.64,0,0,0,.39-.93h1.22a2.94,2.94,0,0,1-.25,1,2.18,2.18,0,0,1-.53.73,2.21,2.21,0,0,1-.76.47,3,3,0,0,1-1,.16,3,3,0,0,1-1.18-.23,2.48,2.48,0,0,1-.89-.63,2.74,2.74,0,0,1-.55-.94,3.4,3.4,0,0,1-.19-1.16,3.54,3.54,0,0,1,.19-1.19,2.94,2.94,0,0,1,.55-1,2.64,2.64,0,0,1,.89-.64,3,3,0,0,1,1.18-.23,2.91,2.91,0,0,1,.89.14,2.43,2.43,0,0,1,.75.39,2.16,2.16,0,0,1,.55.65,2.39,2.39,0,0,1,.27.88H73.29A1.07,1.07,0,0,0,73.14,102.41Z"/><path class="cls-1" d="M77.46,100.89v2.19h2.31v-2.19H81v5.71H79.77v-2.46H77.46v2.46H76.21v-5.71Z"/><path class="cls-1" d="M87.21,100.89v1h-3v1.23H87v1H84.19v1.4h3.08v1.06H82.93v-5.71Z"/><path class="cls-1" d="M92.93,100.89v1H90.17v1.32h2.4v1h-2.4v2.36H88.92v-5.71Z"/><path class="cls-1" d="M95.42,105.19a.9.9,0,0,0,.28.33,1.22,1.22,0,0,0,.4.18,2,2,0,0,0,.48.06l.36,0a1.08,1.08,0,0,0,.36-.11.67.67,0,0,0,.28-.22.51.51,0,0,0,.11-.35.54.54,0,0,0-.14-.38,1.44,1.44,0,0,0-.39-.24,4.53,4.53,0,0,0-.55-.17c-.2,0-.4-.1-.61-.16a4.57,4.57,0,0,1-.63-.19,2.35,2.35,0,0,1-.54-.3,1.45,1.45,0,0,1-.39-.46,1.41,1.41,0,0,1-.15-.67,1.53,1.53,0,0,1,.19-.76,1.7,1.7,0,0,1,.49-.54,2,2,0,0,1,.69-.32,2.92,2.92,0,0,1,.77-.11,4,4,0,0,1,.86.1,2.21,2.21,0,0,1,.73.33,1.75,1.75,0,0,1,.51.57,1.8,1.8,0,0,1,.19.84H97.5a1,1,0,0,0-.11-.42.78.78,0,0,0-.24-.27,1,1,0,0,0-.35-.13,1.91,1.91,0,0,0-.43,0,1.53,1.53,0,0,0-.3,0,1,1,0,0,0-.28.11.64.64,0,0,0-.2.2.57.57,0,0,0-.08.31.54.54,0,0,0,.06.27.62.62,0,0,0,.26.19,2.76,2.76,0,0,0,.52.18l.86.22.45.12a2,2,0,0,1,.56.26,1.8,1.8,0,0,1,.49.5,1.41,1.41,0,0,1,.2.78,1.73,1.73,0,0,1-.15.73,1.5,1.5,0,0,1-.45.58,2.12,2.12,0,0,1-.75.38,3.51,3.51,0,0,1-1,.14,3.44,3.44,0,0,1-.91-.12,2.48,2.48,0,0,1-.79-.36,2.06,2.06,0,0,1-.54-.63,2,2,0,0,1-.19-.92h1.22A1,1,0,0,0,95.42,105.19Z"/></svg>