<svg id="Layer_1" data-name="Layer 1" xmlns="http://www.w3.org/2000/svg" viewBox="0 0 125 125"><defs><style>.cls-1{fill:#231f20;}.cls-2,.cls-3,.cls-4{fill:none;stroke:#fff;stroke-miterlimit:10;}.cls-2,.cls-4{stroke-width:2px;}.cls-3,.cls-4{stroke-linecap:round;}</style></defs><circle class="cls-1" cx="62.35" cy="39.65" r="37.65"/><rect class="cls-2" x="44.4" y="24.26" width="35.62" height="30.74" rx="2.71" transform="translate(101.84 -22.59) rotate(90)"/><polyline class="cls-3" points="58.13 42.6 60.81 45.28 66.3 39.79"/><circle class="cls-4" cx="62.21" cy="42.67" r="8.31"/><path class="cls-2" d="M54.34,21.82V20.49a2,2,0,0,1,1.95-1.95H68.17a2,2,0,0,1,2,1.95v1.33"/><line class="cls-3" x1="54.25" y1="30.04" x2="70.38" y2="30.04"/><line class="cls-3" x1="54.25" y1="27.56" x2="70.38" y2="27.56"/><path class="cls-1" d="M8.61,94.94a.9.9,0,0,0,.28.33,1.22,1.22,0,0,0,.4.18,2,2,0,0,0,.48.06l.36,0a1.08,1.08,0,0,0,.36-.11.67.67,0,0,0,.28-.22.51.51,0,0,0,.11-.35.54.54,0,0,0-.14-.38,1.44,1.44,0,0,0-.39-.24A4.53,4.53,0,0,0,9.8,94c-.2,0-.4-.1-.61-.16a6.55,6.55,0,0,1-.63-.19,2.35,2.35,0,0,1-.54-.3,1.57,1.57,0,0,1-.39-.46,1.41,1.41,0,0,1-.15-.67,1.53,1.53,0,0,1,.19-.76,1.7,1.7,0,0,1,.49-.54,2,2,0,0,1,.69-.32,2.92,2.92,0,0,1,.77-.11,4,4,0,0,1,.86.1,2.21,2.21,0,0,1,.73.33,1.75,1.75,0,0,1,.51.57,1.8,1.8,0,0,1,.19.84H10.69a1,1,0,0,0-.11-.42.78.78,0,0,0-.24-.27,1,1,0,0,0-.35-.13,1.91,1.91,0,0,0-.43,0,1.53,1.53,0,0,0-.3,0,1,1,0,0,0-.28.11.64.64,0,0,0-.2.2.57.57,0,0,0-.08.31.54.54,0,0,0,.06.27.62.62,0,0,0,.26.19,2.76,2.76,0,0,0,.52.18l.86.22.45.12a2,2,0,0,1,.56.26,1.8,1.8,0,0,1,.49.5,1.41,1.41,0,0,1,.2.78,1.73,1.73,0,0,1-.15.73,1.5,1.5,0,0,1-.45.58,2.3,2.3,0,0,1-.75.38,3.51,3.51,0,0,1-1,.14,3.44,3.44,0,0,1-.91-.12A2.48,2.48,0,0,1,8,96a2.06,2.06,0,0,1-.54-.63,2,2,0,0,1-.19-.92H8.51A1,1,0,0,0,8.61,94.94Z"/><path class="cls-1" d="M17.84,95.91a2.62,2.62,0,0,1-1.79.57,2.63,2.63,0,0,1-1.79-.56,2.18,2.18,0,0,1-.64-1.73V90.64h1.26v3.55a2.38,2.38,0,0,0,0,.46.9.9,0,0,0,.16.39.92.92,0,0,0,.36.28,1.45,1.45,0,0,0,.61.11,1.18,1.18,0,0,0,.93-.3,1.43,1.43,0,0,0,.26-.94V90.64h1.25v3.55A2.13,2.13,0,0,1,17.84,95.91Z"/><path class="cls-1" d="M21.33,94.94a.9.9,0,0,0,.28.33,1.22,1.22,0,0,0,.4.18,2,2,0,0,0,.48.06l.36,0a1.08,1.08,0,0,0,.36-.11.67.67,0,0,0,.28-.22.51.51,0,0,0,.11-.35.54.54,0,0,0-.14-.38,1.44,1.44,0,0,0-.39-.24,4.53,4.53,0,0,0-.55-.17c-.2,0-.4-.1-.61-.16a6.55,6.55,0,0,1-.63-.19,2.35,2.35,0,0,1-.54-.3,1.57,1.57,0,0,1-.39-.46,1.41,1.41,0,0,1-.15-.67,1.53,1.53,0,0,1,.19-.76,1.7,1.7,0,0,1,.49-.54,2,2,0,0,1,.69-.32,2.92,2.92,0,0,1,.77-.11,4,4,0,0,1,.86.1,2.21,2.21,0,0,1,.73.33,1.75,1.75,0,0,1,.51.57,1.8,1.8,0,0,1,.19.84H23.41a.87.87,0,0,0-.11-.42.78.78,0,0,0-.24-.27,1,1,0,0,0-.35-.13,1.91,1.91,0,0,0-.43,0,1.53,1.53,0,0,0-.3,0,1,1,0,0,0-.28.11.64.64,0,0,0-.2.2.57.57,0,0,0-.08.31.54.54,0,0,0,.06.27.62.62,0,0,0,.26.19,2.76,2.76,0,0,0,.52.18l.86.22.45.12a1.89,1.89,0,0,1,.56.26,1.8,1.8,0,0,1,.49.5,1.41,1.41,0,0,1,.2.78,1.73,1.73,0,0,1-.15.73,1.43,1.43,0,0,1-.46.58,2.06,2.06,0,0,1-.74.38,3.51,3.51,0,0,1-1,.14,3.44,3.44,0,0,1-.91-.12,2.48,2.48,0,0,1-.79-.36,2.06,2.06,0,0,1-.54-.63,2,2,0,0,1-.19-.92h1.22A1,1,0,0,0,21.33,94.94Z"/><path class="cls-1" d="M25.92,91.69v-1H30.6v1H28.88v4.66H27.63V91.69Z"/><path class="cls-1" d="M34.16,90.64l2.14,5.71H35l-.44-1.27H32.43L32,96.35H30.72l2.16-5.71Zm.08,3.5-.72-2.09h0l-.74,2.09Z"/><path class="cls-1" d="M38.85,90.64v5.71H37.6V90.64Z"/><path class="cls-1" d="M42,90.64l2.39,3.83h0V90.64h1.18v5.71H44.32L42,92.53h0v3.82H40.75V90.64Z"/><path class="cls-1" d="M50.33,90.64l2.14,5.71H51.16l-.43-1.27H48.6l-.45,1.27H46.88L49,90.64Zm.07,3.5-.72-2.09h0l-.75,2.09Z"/><path class="cls-1" d="M56.45,90.64a3.54,3.54,0,0,1,.75.07,1.63,1.63,0,0,1,.57.24,1.11,1.11,0,0,1,.37.43,1.51,1.51,0,0,1,.14.67,1.25,1.25,0,0,1-.2.72,1.47,1.47,0,0,1-.58.48,1.37,1.37,0,0,1,.79.53,1.73,1.73,0,0,1,.09,1.66,1.5,1.5,0,0,1-.45.52,2,2,0,0,1-.65.29,2.66,2.66,0,0,1-.75.1H53.76V90.64ZM56.29,93a.86.86,0,0,0,.55-.16.59.59,0,0,0,.22-.52.67.67,0,0,0-.07-.33.55.55,0,0,0-.2-.2.79.79,0,0,0-.27-.1,1.66,1.66,0,0,0-.32,0H55V93Zm.07,2.42a1.9,1.9,0,0,0,.35,0,1,1,0,0,0,.3-.12.56.56,0,0,0,.2-.23.7.7,0,0,0,.08-.37A.74.74,0,0,0,57,94a1.07,1.07,0,0,0-.65-.18H55v1.56Z"/><path class="cls-1" d="M61.45,90.64v4.65h2.78v1.06h-4V90.64Z"/><path class="cls-1" d="M64.23,90.64h1.41L67,92.89l1.33-2.25h1.4l-2.12,3.52v2.19H66.33V94.13Z"/><path class="cls-1" d="M75,94.94a.9.9,0,0,0,.28.33,1.22,1.22,0,0,0,.4.18,1.86,1.86,0,0,0,.48.06l.36,0a1.08,1.08,0,0,0,.36-.11.67.67,0,0,0,.28-.22.58.58,0,0,0,0-.73,1.24,1.24,0,0,0-.38-.24,4.53,4.53,0,0,0-.55-.17c-.2,0-.41-.1-.61-.16a5.79,5.79,0,0,1-.63-.19,2.35,2.35,0,0,1-.54-.3A1.57,1.57,0,0,1,74,92.9a1.41,1.41,0,0,1-.15-.67,1.53,1.53,0,0,1,.19-.76,1.7,1.7,0,0,1,.49-.54,1.9,1.9,0,0,1,.69-.32A2.92,2.92,0,0,1,76,90.5a4,4,0,0,1,.86.1,2.21,2.21,0,0,1,.73.33,1.75,1.75,0,0,1,.51.57,1.8,1.8,0,0,1,.19.84H77.05a1,1,0,0,0-.11-.42.78.78,0,0,0-.24-.27,1,1,0,0,0-.35-.13,1.91,1.91,0,0,0-.43,0,1.53,1.53,0,0,0-.3,0,1,1,0,0,0-.28.11.64.64,0,0,0-.2.2.49.49,0,0,0-.08.31.54.54,0,0,0,.06.27.62.62,0,0,0,.26.19,2.89,2.89,0,0,0,.51.18l.87.22.45.12a2,2,0,0,1,.56.26,1.64,1.64,0,0,1,.48.5,1.33,1.33,0,0,1,.21.78,1.73,1.73,0,0,1-.15.73,1.52,1.52,0,0,1-.46.58,2.15,2.15,0,0,1-.74.38,3.56,3.56,0,0,1-1,.14,3.44,3.44,0,0,1-.91-.12,2.48,2.48,0,0,1-.79-.36,2.06,2.06,0,0,1-.54-.63,1.89,1.89,0,0,1-.19-.92h1.22A1,1,0,0,0,75,94.94Z"/><path class="cls-1" d="M80,92.33a2.77,2.77,0,0,1,.55-1,2.6,2.6,0,0,1,.88-.64,3,3,0,0,1,1.18-.23,3,3,0,0,1,1.19.23,2.7,2.7,0,0,1,.88.64,2.94,2.94,0,0,1,.55,1,3.5,3.5,0,0,1,.19,1.19,3.4,3.4,0,0,1-.19,1.16,2.84,2.84,0,0,1-.55.94,2.54,2.54,0,0,1-.88.63,3,3,0,0,1-1.19.23,3,3,0,0,1-1.18-.23,2.45,2.45,0,0,1-.88-.63,2.68,2.68,0,0,1-.55-.94,3.41,3.41,0,0,1-.2-1.16A3.5,3.5,0,0,1,80,92.33Zm1.14,1.89a2.1,2.1,0,0,0,.27.61,1.36,1.36,0,0,0,.48.44,1.7,1.7,0,0,0,1.44,0,1.36,1.36,0,0,0,.48-.44,2.1,2.1,0,0,0,.27-.61,2.74,2.74,0,0,0,.08-.7,2.92,2.92,0,0,0-.08-.73,2.22,2.22,0,0,0-.27-.63,1.36,1.36,0,0,0-.48-.44,1.7,1.7,0,0,0-1.44,0,1.36,1.36,0,0,0-.48.44,2.22,2.22,0,0,0-.27.63,3.47,3.47,0,0,0-.08.73A3.27,3.27,0,0,0,81.09,94.22Z"/><path class="cls-1" d="M91.23,95.91a3.13,3.13,0,0,1-3.59,0A2.18,2.18,0,0,1,87,94.19V90.64h1.26v3.55a2.38,2.38,0,0,0,0,.46.91.91,0,0,0,.17.39.82.82,0,0,0,.35.28,1.48,1.48,0,0,0,.61.11,1.18,1.18,0,0,0,.93-.3,1.43,1.43,0,0,0,.26-.94V90.64h1.26v3.55A2.16,2.16,0,0,1,91.23,95.91Z"/><path class="cls-1" d="M96.83,90.64a1.94,1.94,0,0,1,.7.12,1.56,1.56,0,0,1,.52.34,1.53,1.53,0,0,1,.34.5,1.58,1.58,0,0,1,.12.61,1.67,1.67,0,0,1-.22.88,1.36,1.36,0,0,1-.69.56h0a1,1,0,0,1,.39.2,1,1,0,0,1,.24.31,1.28,1.28,0,0,1,.15.4c0,.14,0,.28.05.43a2.73,2.73,0,0,1,0,.32c0,.12,0,.25,0,.37a2.2,2.2,0,0,0,.06.37,1.11,1.11,0,0,0,.13.29H97.42a2.34,2.34,0,0,1-.13-.65c0-.25,0-.49-.07-.72a1.06,1.06,0,0,0-.27-.65.94.94,0,0,0-.68-.21H95v2.23H93.75V90.64Zm-.44,2.58A1,1,0,0,0,97,93a.82.82,0,0,0,.21-.62A.79.79,0,0,0,97,91.8a1,1,0,0,0-.65-.19H95v1.61Z"/><path class="cls-1" d="M104,92.16a1.38,1.38,0,0,0-.66-.53,1.31,1.31,0,0,0-.44-.07,1.47,1.47,0,0,0-.72.16,1.36,1.36,0,0,0-.48.44,2.22,2.22,0,0,0-.27.63,3.47,3.47,0,0,0-.08.73,3.27,3.27,0,0,0,.08.7,2.1,2.1,0,0,0,.27.61,1.36,1.36,0,0,0,.48.44,1.47,1.47,0,0,0,.72.16,1.19,1.19,0,0,0,.9-.35,1.65,1.65,0,0,0,.4-.93h1.21a2.72,2.72,0,0,1-.25,1,2.3,2.3,0,0,1-.52.73,2.25,2.25,0,0,1-.77.47,3,3,0,0,1-1,.16,3,3,0,0,1-1.18-.23,2.45,2.45,0,0,1-.88-.63,2.86,2.86,0,0,1-.56-.94,3.66,3.66,0,0,1-.19-1.16,3.76,3.76,0,0,1,.19-1.19,3,3,0,0,1,.56-1,2.6,2.6,0,0,1,.88-.64,3,3,0,0,1,1.18-.23,2.86,2.86,0,0,1,.89.14,2.43,2.43,0,0,1,.75.39,2,2,0,0,1,.55.65,2.07,2.07,0,0,1,.27.88h-1.21A.92.92,0,0,0,104,92.16Z"/><path class="cls-1" d="M111.33,90.64v1h-3v1.23h2.77v1h-2.77v1.4h3.08v1.06h-4.33V90.64Z"/><path class="cls-1" d="M115.51,90.64a3.13,3.13,0,0,1,1,.17,2.37,2.37,0,0,1,.82.53,2.51,2.51,0,0,1,.54.88,3.58,3.58,0,0,1,.2,1.24,4.15,4.15,0,0,1-.16,1.15,2.68,2.68,0,0,1-.48.92,2.45,2.45,0,0,1-.81.6,2.73,2.73,0,0,1-1.14.22H113V90.64Zm-.09,4.65a1.89,1.89,0,0,0,.53-.08,1.11,1.11,0,0,0,.45-.3,1.32,1.32,0,0,0,.32-.53,2.32,2.32,0,0,0,.12-.8,3.67,3.67,0,0,0-.08-.78,1.54,1.54,0,0,0-.28-.59,1.09,1.09,0,0,0-.51-.38,2,2,0,0,0-.77-.14h-.9v3.6Z"/><path class="cls-1" d="M33.17,100.64v5.71H31.91v-5.71Z"/><path class="cls-1" d="M36.32,100.64l2.38,3.83h0v-3.83h1.17v5.71H38.64l-2.38-3.82h0v3.82H35.07v-5.71Z"/><path class="cls-1" d="M45.18,106.31a2.15,2.15,0,0,1-.82.17,3,3,0,0,1-1.18-.23,2.57,2.57,0,0,1-.89-.63,2.84,2.84,0,0,1-.55-.94,3.66,3.66,0,0,1-.19-1.16,3.76,3.76,0,0,1,.19-1.19,2.94,2.94,0,0,1,.55-1,2.74,2.74,0,0,1,.89-.64,3,3,0,0,1,1.18-.23,3,3,0,0,1,.85.13A2.55,2.55,0,0,1,46,101a2.06,2.06,0,0,1,.54.63,2.17,2.17,0,0,1,.27.87h-1.2a1.2,1.2,0,0,0-.44-.72,1.24,1.24,0,0,0-.77-.24,1.47,1.47,0,0,0-.72.16,1.36,1.36,0,0,0-.48.44,2.22,2.22,0,0,0-.27.63,2.92,2.92,0,0,0-.08.73,2.74,2.74,0,0,0,.08.7,2.1,2.1,0,0,0,.27.61,1.36,1.36,0,0,0,.48.44,1.47,1.47,0,0,0,.72.16,1.34,1.34,0,0,0,1-.32,1.36,1.36,0,0,0,.4-.91H44.46v-.94h2.4v3.09h-.81l-.12-.65A1.93,1.93,0,0,1,45.18,106.31Z"/><path class="cls-1" d="M51.75,100.64a1.85,1.85,0,0,1,.69.12,1.61,1.61,0,0,1,.53.34,1.53,1.53,0,0,1,.34.5,1.78,1.78,0,0,1,.11.61,1.76,1.76,0,0,1-.21.88,1.36,1.36,0,0,1-.69.56h0a.92.92,0,0,1,.38.2,1.07,1.07,0,0,1,.25.31,1.57,1.57,0,0,1,.14.4,3,3,0,0,1,.06.43c0,.09,0,.19,0,.32s0,.25,0,.37,0,.25.07.37a.86.86,0,0,0,.13.29H52.33a2.35,2.35,0,0,1-.12-.65c0-.25,0-.49-.08-.72a1.06,1.06,0,0,0-.27-.65.92.92,0,0,0-.68-.21H49.93v2.23H48.67v-5.71Zm-.45,2.58A.94.94,0,0,0,52,103a.82.82,0,0,0,.22-.62.79.79,0,0,0-.22-.61,1,1,0,0,0-.65-.19H49.93v1.61Z"/><path class="cls-1" d="M59.52,100.64v1h-3v1.23h2.77v1H56.5v1.4h3.08v1.06H55.25v-5.71Z"/><path class="cls-1" d="M63.7,100.64a3.07,3.07,0,0,1,1,.17,2.41,2.41,0,0,1,.83.53,2.51,2.51,0,0,1,.54.88,3.58,3.58,0,0,1,.2,1.24,4.15,4.15,0,0,1-.16,1.15,2.54,2.54,0,0,1-.49.92,2.26,2.26,0,0,1-.81.6,2.65,2.65,0,0,1-1.13.22H61.23v-5.71Zm-.09,4.65a1.82,1.82,0,0,0,.52-.08,1.15,1.15,0,0,0,.46-.3,1.44,1.44,0,0,0,.32-.53,2.32,2.32,0,0,0,.12-.8,3.67,3.67,0,0,0-.08-.78,1.54,1.54,0,0,0-.28-.59,1.15,1.15,0,0,0-.51-.38,2,2,0,0,0-.78-.14h-.89v3.6Z"/><path class="cls-1" d="M69.21,100.64v5.71H68v-5.71Z"/><path class="cls-1" d="M75.39,100.64v1h-3v1.23h2.76v1H72.38v1.4h3.08v1.06H71.12v-5.71Z"/><path class="cls-1" d="M78.35,100.64l2.38,3.83h0v-3.83h1.18v5.71H80.67l-2.38-3.82h0v3.82H77.1v-5.71Z"/><path class="cls-1" d="M83.38,101.69v-1h4.68v1H86.35v4.66H85.09v-4.66Z"/><path class="cls-1" d="M90.48,104.94a1,1,0,0,0,.27.33,1.28,1.28,0,0,0,.41.18,1.86,1.86,0,0,0,.48.06l.36,0a1.08,1.08,0,0,0,.36-.11.74.74,0,0,0,.28-.22.56.56,0,0,0,.11-.35.5.5,0,0,0-.15-.38,1.3,1.3,0,0,0-.39-.24,5,5,0,0,0-.54-.17c-.2,0-.41-.1-.62-.16a6.36,6.36,0,0,1-.62-.19,2.35,2.35,0,0,1-.54-.3,1.57,1.57,0,0,1-.39-.46,1.41,1.41,0,0,1-.15-.67,1.43,1.43,0,0,1,.19-.76,1.59,1.59,0,0,1,.49-.54,1.82,1.82,0,0,1,.69-.32,2.87,2.87,0,0,1,.77-.11,4,4,0,0,1,.86.1,2.21,2.21,0,0,1,.73.33,1.75,1.75,0,0,1,.51.57,1.8,1.8,0,0,1,.18.84H92.56a1,1,0,0,0-.11-.42.78.78,0,0,0-.24-.27,1,1,0,0,0-.35-.13,2,2,0,0,0-.43,0,1.53,1.53,0,0,0-.3,0,.86.86,0,0,0-.28.11.64.64,0,0,0-.2.2.49.49,0,0,0-.08.31.54.54,0,0,0,.06.27.58.58,0,0,0,.25.19,3.39,3.39,0,0,0,.52.18l.87.22a3.38,3.38,0,0,1,.44.12,2.06,2.06,0,0,1,.57.26,1.77,1.77,0,0,1,.48.5,1.33,1.33,0,0,1,.21.78,1.6,1.6,0,0,1-.16.73,1.5,1.5,0,0,1-.45.58,2.25,2.25,0,0,1-.74.38,3.73,3.73,0,0,1-2,0,2.53,2.53,0,0,1-.78-.36,1.82,1.82,0,0,1-.54-.63,1.89,1.89,0,0,1-.19-.92h1.22A1,1,0,0,0,90.48,104.94Z"/></svg>