<svg id="Layer_1" data-name="Layer 1" xmlns="http://www.w3.org/2000/svg" viewBox="0 0 125 125"><defs><style>.cls-1{fill:#231f20;}.cls-2{fill:#fff;}</style></defs><circle class="cls-1" cx="62.88" cy="41.49" r="37.65"/><polygon class="cls-2" points="65.68 29.7 72.19 29.69 72.22 31.1 65.72 31.11 65.68 29.7"/><path class="cls-2" d="M82.81,43h-10l.84-12.6a.68.68,0,0,0-.19-.53.72.72,0,0,0-.51-.22H71.56v1.41h.65l-.17,2.52-2,1.13a7.77,7.77,0,0,1-6.89.3V31.13l4.23,0v-1.4l-4.21,0V26.55l7.4-4.71-.75-1.19-7.73,4.92a.69.69,0,0,0-.33.59v3.57l-9.84.05a.71.71,0,0,0-.7.71v.05L52,42.27a12.45,12.45,0,0,0-1,2.35A7,7,0,0,0,44.89,41a.7.7,0,0,0-.7.7,7,7,0,0,0,1.15,3.84,4,4,0,0,0-.84.56l-.21.18a8.74,8.74,0,0,0-2.68,8.77L42,56.75a8.79,8.79,0,0,0,3.62,5.09,5,5,0,0,0,5.17.2l0-.07a16.83,16.83,0,0,0,4,.68h.43v.06h9.27a19,19,0,0,0,19-18.95v0A.7.7,0,0,0,82.81,43ZM72.56,44.82v-.38h7a15,15,0,0,1-13,14.22,16.53,16.53,0,0,0,2.77-3.13A19,19,0,0,0,72.56,44.82ZM61.72,31.14v3.4a9.19,9.19,0,0,0-6.87.8l-1.87,1-.34-5.19ZM54.09,41.59l.08-.11-.89-.7-.19-2.84,2.44-1.37a7.77,7.77,0,0,1,6.95-.28A9.17,9.17,0,0,0,70.69,36l1.24-.69L71.62,40a2.62,2.62,0,0,0-.51-.3l-1-.44A2,2,0,0,0,67.3,40.8,18.6,18.6,0,0,1,61,51.85a8.72,8.72,0,0,0-2.89-5.53l-.21-.18a3.83,3.83,0,0,0-5-.07l-.89.74A10.51,10.51,0,0,1,54.09,41.59Zm-3.67,5.68a5.58,5.58,0,0,1-4.77-4.77A5.58,5.58,0,0,1,50.42,47.27Zm-4,13.4a7.38,7.38,0,0,1-3-4.27L43,54.74a7.31,7.31,0,0,1,2.26-7.36h0l.2-.18a2.4,2.4,0,0,1,.85-.48,7,7,0,0,0,4.89,2l.14,0a1.83,1.83,0,0,0,1.09-.43l1.34-1.12a2.43,2.43,0,0,1,3.18,0l.2.18a7.31,7.31,0,0,1,2.48,5.5,18.66,18.66,0,0,1-9.27,3.31l-3.11.23a.71.71,0,0,0-.65.71v2.56a.71.71,0,0,0,.35.61l.1.05a14.84,14.84,0,0,0,1.78.9A3.58,3.58,0,0,1,46.44,60.67Zm8.46.58h0a15.84,15.84,0,0,1-6.92-2v-1.5l2.46-.19A20,20,0,0,0,68.68,41a.62.62,0,0,1,.32-.45.59.59,0,0,1,.52,0l1,.44a.94.94,0,0,1,.58.87v3a17.59,17.59,0,0,1-3,9.91A15,15,0,0,1,54.9,61.25Zm9.63.06H62.29a15.42,15.42,0,0,0,2.24-1.18v.07A16.44,16.44,0,0,0,81,44.44h1.12A17.55,17.55,0,0,1,64.53,61.31Z"/><circle class="cls-2" cx="75.02" cy="46.78" r="0.62"/><circle class="cls-2" cx="75.64" cy="50.52" r="0.62"/><circle class="cls-2" cx="71.91" cy="54.25" r="0.62"/><path class="cls-1" d="M34.39,90.46a3.38,3.38,0,0,1,.74.07,1.69,1.69,0,0,1,.58.24,1.11,1.11,0,0,1,.37.43,1.51,1.51,0,0,1,.13.67,1.25,1.25,0,0,1-.2.72,1.4,1.4,0,0,1-.58.48,1.3,1.3,0,0,1,.79.53,1.6,1.6,0,0,1,.26.91,1.49,1.49,0,0,1-.17.75,1.5,1.5,0,0,1-.45.52,1.93,1.93,0,0,1-.65.29,2.64,2.64,0,0,1-.74.1H31.7V90.46Zm-.16,2.31a.9.9,0,0,0,.55-.16.62.62,0,0,0,.21-.52.67.67,0,0,0-.07-.33.61.61,0,0,0-.19-.2.77.77,0,0,0-.28-.1,1.66,1.66,0,0,0-.32,0H33v1.34Zm.07,2.42a2,2,0,0,0,.35,0A1.34,1.34,0,0,0,35,95a.64.64,0,0,0,.2-.23.81.81,0,0,0,.08-.37.77.77,0,0,0-.25-.63,1.12,1.12,0,0,0-.66-.18H33v1.56Z"/><path class="cls-1" d="M41.21,90.46a1.85,1.85,0,0,1,.69.12,1.61,1.61,0,0,1,.53.34,1.53,1.53,0,0,1,.34.5,1.78,1.78,0,0,1,.11.61,1.76,1.76,0,0,1-.21.88,1.36,1.36,0,0,1-.69.56h0a.92.92,0,0,1,.38.2,1.26,1.26,0,0,1,.25.31,1.57,1.57,0,0,1,.14.4,3,3,0,0,1,.06.43c0,.09,0,.19,0,.32s0,.25,0,.37,0,.25.07.37a.86.86,0,0,0,.13.29H41.79a2,2,0,0,1-.12-.65c0-.25-.05-.49-.08-.72a1.06,1.06,0,0,0-.27-.65.92.92,0,0,0-.68-.21H39.39v2.23H38.13V90.46ZM40.76,93a.94.94,0,0,0,.65-.19.82.82,0,0,0,.21-.62.79.79,0,0,0-.21-.61,1,1,0,0,0-.65-.19H39.39V93Z"/><path class="cls-1" d="M49,90.46v1.05H46v1.23h2.77v1H46v1.4H49v1.06H44.71V90.46Z"/><path class="cls-1" d="M53.54,90.46l2.13,5.71h-1.3l-.43-1.27H51.8l-.45,1.27H50.09l2.16-5.71Zm.07,3.5-.72-2.09h0L52.13,94Z"/><path class="cls-1" d="M58.23,90.46v2.37l2.23-2.37H62l-2.24,2.25,2.45,3.46H60.67L59,93.6l-.72.73v1.84H57V90.46Z"/><path class="cls-1" d="M67.56,90.46v1.05H64.8v1.32h2.39v1H64.8v2.36H63.54V90.46Z"/><path class="cls-1" d="M71.5,90.46l2.13,5.71h-1.3L71.9,94.9H69.76l-.45,1.27H68.05l2.16-5.71Zm.07,3.5-.72-2.09h0L70.09,94Z"/><path class="cls-1" d="M75.89,94.76a.9.9,0,0,0,.28.33,1.13,1.13,0,0,0,.4.18,1.86,1.86,0,0,0,.48.06l.36,0a1.08,1.08,0,0,0,.36-.11.74.74,0,0,0,.28-.22.56.56,0,0,0,.11-.35.5.5,0,0,0-.15-.38,1.3,1.3,0,0,0-.39-.24,5,5,0,0,0-.54-.17c-.2,0-.41-.1-.62-.16a6.36,6.36,0,0,1-.62-.19,2.35,2.35,0,0,1-.54-.3,1.57,1.57,0,0,1-.39-.46,1.41,1.41,0,0,1-.15-.67,1.43,1.43,0,0,1,.19-.76,1.59,1.59,0,0,1,.49-.54,2,2,0,0,1,.69-.32,2.87,2.87,0,0,1,.77-.11,4,4,0,0,1,.86.1,2.21,2.21,0,0,1,.73.33,1.75,1.75,0,0,1,.51.57,1.8,1.8,0,0,1,.19.84H78a1,1,0,0,0-.11-.42.78.78,0,0,0-.24-.27,1,1,0,0,0-.35-.13,1.91,1.91,0,0,0-.43,0,1.53,1.53,0,0,0-.3,0,.86.86,0,0,0-.28.11.76.76,0,0,0-.2.2A.49.49,0,0,0,76,92a.54.54,0,0,0,.06.27.58.58,0,0,0,.25.19,3.39,3.39,0,0,0,.52.18l.87.22a3.38,3.38,0,0,1,.44.12,2.06,2.06,0,0,1,.57.26,1.64,1.64,0,0,1,.48.5,1.33,1.33,0,0,1,.21.78,1.73,1.73,0,0,1-.15.73,1.62,1.62,0,0,1-.46.58,2.15,2.15,0,0,1-.74.38,3.73,3.73,0,0,1-2,0,2.53,2.53,0,0,1-.78-.36,1.82,1.82,0,0,1-.54-.63,1.89,1.89,0,0,1-.19-.92h1.22A1,1,0,0,0,75.89,94.76Z"/><path class="cls-1" d="M80.47,91.51V90.46h4.68v1.05H83.44v4.66H82.18V91.51Z"/><path class="cls-1" d="M92.06,96.11a2.23,2.23,0,0,1-.88.16,2.17,2.17,0,0,1-.72-.11,1.56,1.56,0,0,1-.59-.33,1.78,1.78,0,0,1-.39-.54,1.65,1.65,0,0,1-.14-.72,1.47,1.47,0,0,1,.1-.56,1.62,1.62,0,0,1,.28-.45,2.14,2.14,0,0,1,.42-.37,3.77,3.77,0,0,1,.48-.28,2.83,2.83,0,0,1-.39-.56,1.23,1.23,0,0,1-.16-.65,1.08,1.08,0,0,1,.13-.54,1.2,1.2,0,0,1,.33-.41,1.45,1.45,0,0,1,.47-.26,1.54,1.54,0,0,1,.56-.1,2,2,0,0,1,.61.09,1.58,1.58,0,0,1,.5.26,1.27,1.27,0,0,1,.33.43,1.25,1.25,0,0,1,.13.59,1.29,1.29,0,0,1-.29.85,2.63,2.63,0,0,1-.73.58l.74.9a1.51,1.51,0,0,0,.13-.33,2.21,2.21,0,0,0,.08-.35h1a3.06,3.06,0,0,1-.17.74,2.76,2.76,0,0,1-.38.67l1.16,1.35H93.26l-.47-.57A2.48,2.48,0,0,1,92.06,96.11ZM90.92,93.8a1.27,1.27,0,0,0-.25.21,1.15,1.15,0,0,0-.19.26.87.87,0,0,0-.06.32.77.77,0,0,0,.06.3.88.88,0,0,0,.19.24,1.07,1.07,0,0,0,.25.16.85.85,0,0,0,.31.06,1,1,0,0,0,.53-.14,1.88,1.88,0,0,0,.43-.37l-1-1.19A2.1,2.1,0,0,0,90.92,93.8ZM92,91.31a.5.5,0,0,0-.36-.16.52.52,0,0,0-.36.14.51.51,0,0,0-.16.37.73.73,0,0,0,.15.46c.09.13.2.26.3.39a2.34,2.34,0,0,0,.41-.32.66.66,0,0,0,.18-.49A.57.57,0,0,0,92,91.31Z"/><path class="cls-1" d="M23.23,104.76a.9.9,0,0,0,.28.33,1.13,1.13,0,0,0,.4.18,1.86,1.86,0,0,0,.48.06l.36,0a1.08,1.08,0,0,0,.36-.11.74.74,0,0,0,.28-.22.56.56,0,0,0,.11-.35.5.5,0,0,0-.15-.38A1.38,1.38,0,0,0,25,104a5.16,5.16,0,0,0-.55-.17c-.2,0-.41-.1-.61-.16a5.79,5.79,0,0,1-.63-.19,2.35,2.35,0,0,1-.54-.3,1.57,1.57,0,0,1-.39-.46,1.41,1.41,0,0,1-.15-.67,1.43,1.43,0,0,1,.19-.76,1.7,1.7,0,0,1,.49-.54,2,2,0,0,1,.69-.32,2.92,2.92,0,0,1,.77-.11,4,4,0,0,1,.86.1,2.21,2.21,0,0,1,.73.33,1.75,1.75,0,0,1,.51.57,1.8,1.8,0,0,1,.19.84H25.31a1,1,0,0,0-.11-.42.78.78,0,0,0-.24-.27,1,1,0,0,0-.35-.13,1.91,1.91,0,0,0-.43,0,1.53,1.53,0,0,0-.3,0,.86.86,0,0,0-.28.11.76.76,0,0,0-.2.2.49.49,0,0,0-.08.31.54.54,0,0,0,.06.27.58.58,0,0,0,.25.19,3.39,3.39,0,0,0,.52.18l.87.22.45.12a2.15,2.15,0,0,1,.56.26,1.64,1.64,0,0,1,.48.5,1.33,1.33,0,0,1,.21.78,1.73,1.73,0,0,1-.15.73,1.62,1.62,0,0,1-.46.58,2.15,2.15,0,0,1-.74.38,3.56,3.56,0,0,1-1,.14,3.44,3.44,0,0,1-.91-.12,2.48,2.48,0,0,1-.79-.36,1.93,1.93,0,0,1-.54-.63,1.89,1.89,0,0,1-.19-.92h1.22A1,1,0,0,0,23.23,104.76Z"/><path class="cls-1" d="M29.51,100.46l2.38,3.83h0v-3.83h1.17v5.71H31.83l-2.38-3.82h0v3.82H28.26v-5.71Z"/><path class="cls-1" d="M37.84,100.46,40,106.17h-1.3l-.43-1.27H36.1l-.45,1.27H34.39l2.16-5.71Zm.07,3.5-.72-2.09h0L36.43,104Z"/><path class="cls-1" d="M44.93,102a1,1,0,0,0-.28-.31,1.19,1.19,0,0,0-.38-.22,1.31,1.31,0,0,0-.44-.07,1.47,1.47,0,0,0-.72.16,1.36,1.36,0,0,0-.48.44,2.22,2.22,0,0,0-.27.63,3.47,3.47,0,0,0-.08.73,3.27,3.27,0,0,0,.08.7,2.1,2.1,0,0,0,.27.61,1.36,1.36,0,0,0,.48.44,1.47,1.47,0,0,0,.72.16,1.19,1.19,0,0,0,.9-.35,1.65,1.65,0,0,0,.4-.93h1.21a2.72,2.72,0,0,1-.25,1,2.3,2.3,0,0,1-.52.73,2.25,2.25,0,0,1-.77.47,3,3,0,0,1-1,.16,3,3,0,0,1-1.18-.23,2.45,2.45,0,0,1-.88-.63,2.86,2.86,0,0,1-.56-.94,3.66,3.66,0,0,1-.19-1.16,3.76,3.76,0,0,1,.19-1.19,3,3,0,0,1,.56-1,2.6,2.6,0,0,1,.88-.64,3,3,0,0,1,1.18-.23,2.91,2.91,0,0,1,.89.14,2.43,2.43,0,0,1,.75.39,2.16,2.16,0,0,1,.55.65,2.07,2.07,0,0,1,.27.88H45.08A.92.92,0,0,0,44.93,102Z"/><path class="cls-1" d="M49.25,100.46v2.37l2.24-2.37h1.56l-2.23,2.25,2.45,3.46H51.69L50,103.6l-.72.73v1.84H48v-5.71Z"/><path class="cls-1" d="M55.53,104.76a1,1,0,0,0,.28.33,1.22,1.22,0,0,0,.4.18,2,2,0,0,0,.48.06,2.19,2.19,0,0,0,.36,0,1.08,1.08,0,0,0,.36-.11.62.62,0,0,0,.28-.22.51.51,0,0,0,.12-.35.5.5,0,0,0-.15-.38,1.44,1.44,0,0,0-.39-.24,5,5,0,0,0-.54-.17c-.21,0-.41-.1-.62-.16a6.36,6.36,0,0,1-.62-.19,2.22,2.22,0,0,1-.55-.3,1.57,1.57,0,0,1-.39-.46,1.68,1.68,0,0,1,0-1.43,1.62,1.62,0,0,1,.5-.54,2,2,0,0,1,.68-.32,3,3,0,0,1,.77-.11,4,4,0,0,1,.86.1,2.12,2.12,0,0,1,.73.33,1.55,1.55,0,0,1,.51.57,1.68,1.68,0,0,1,.19.84H57.61a1,1,0,0,0-.1-.42.93.93,0,0,0-.25-.27,1,1,0,0,0-.35-.13,1.87,1.87,0,0,0-.42,0,1.55,1.55,0,0,0-.31,0,.81.81,0,0,0-.27.11.67.67,0,0,0-.21.2.57.57,0,0,0-.08.31.45.45,0,0,0,.07.27.53.53,0,0,0,.25.19,3,3,0,0,0,.52.18l.87.22.44.12a1.89,1.89,0,0,1,.56.26,1.8,1.8,0,0,1,.49.5,1.41,1.41,0,0,1,.2.78,1.73,1.73,0,0,1-.15.73,1.5,1.5,0,0,1-.45.58,2.2,2.2,0,0,1-.75.38,3.44,3.44,0,0,1-1,.14,3.52,3.52,0,0,1-.92-.12,2.33,2.33,0,0,1-.78-.36,1.82,1.82,0,0,1-.54-.63,1.89,1.89,0,0,1-.2-.92h1.22A1,1,0,0,0,55.53,104.76Z"/><path class="cls-1" d="M63.53,102.15a3,3,0,0,1,.56-1,2.6,2.6,0,0,1,.88-.64,3,3,0,0,1,1.18-.23,2.92,2.92,0,0,1,1.18.23,2.6,2.6,0,0,1,.88.64,3,3,0,0,1,.56,1,3.76,3.76,0,0,1,.19,1.19,3.66,3.66,0,0,1-.19,1.16,2.86,2.86,0,0,1-.56.94,2.45,2.45,0,0,1-.88.63,2.92,2.92,0,0,1-1.18.23,3,3,0,0,1-1.18-.23,2.45,2.45,0,0,1-.88-.63,2.86,2.86,0,0,1-.56-.94,3.66,3.66,0,0,1-.19-1.16A3.76,3.76,0,0,1,63.53,102.15ZM64.68,104a2.1,2.1,0,0,0,.27.61,1.36,1.36,0,0,0,.48.44,1.7,1.7,0,0,0,1.44,0,1.36,1.36,0,0,0,.48-.44,2.1,2.1,0,0,0,.27-.61,3.27,3.27,0,0,0,.08-.7,3.47,3.47,0,0,0-.08-.73,2.22,2.22,0,0,0-.27-.63,1.36,1.36,0,0,0-.48-.44,1.7,1.7,0,0,0-1.44,0A1.36,1.36,0,0,0,65,102a2.22,2.22,0,0,0-.27.63,3.47,3.47,0,0,0-.08.73A3.27,3.27,0,0,0,64.68,104Z"/><path class="cls-1" d="M73.19,100.46a2.44,2.44,0,0,1,.91.15,1.74,1.74,0,0,1,.61.42,1.51,1.51,0,0,1,.35.58,2.2,2.2,0,0,1,.11.68,2.3,2.3,0,0,1-.11.68,1.51,1.51,0,0,1-.35.58,1.74,1.74,0,0,1-.61.42,2.44,2.44,0,0,1-.91.15H71.87v2H70.61v-5.71Zm-.34,2.69a2.71,2.71,0,0,0,.41,0,1,1,0,0,0,.35-.12.69.69,0,0,0,.25-.26,1.12,1.12,0,0,0,0-.88.69.69,0,0,0-.25-.26,1,1,0,0,0-.35-.12,1.84,1.84,0,0,0-.41,0h-1v1.72Z"/><path class="cls-1" d="M76.3,101.51v-1.05H81v1.05H79.27v4.66H78v-4.66Z"/><path class="cls-1" d="M83.69,100.46v5.71H82.44v-5.71Z"/><path class="cls-1" d="M85.54,102.15a2.94,2.94,0,0,1,.55-1,2.64,2.64,0,0,1,.89-.64,3.14,3.14,0,0,1,2.36,0,2.6,2.6,0,0,1,.88.64,2.77,2.77,0,0,1,.55,1,3.5,3.5,0,0,1,.19,1.19,3.4,3.4,0,0,1-.19,1.16,2.68,2.68,0,0,1-.55.94,2.45,2.45,0,0,1-.88.63,3.14,3.14,0,0,1-2.36,0,2.48,2.48,0,0,1-.89-.63,2.84,2.84,0,0,1-.55-.94,3.4,3.4,0,0,1-.19-1.16A3.5,3.5,0,0,1,85.54,102.15ZM86.69,104a1.86,1.86,0,0,0,.27.61,1.36,1.36,0,0,0,.48.44,1.42,1.42,0,0,0,.72.16,1.47,1.47,0,0,0,.72-.16,1.55,1.55,0,0,0,.48-.44,1.85,1.85,0,0,0,.26-.61,2.74,2.74,0,0,0,.09-.7,2.92,2.92,0,0,0-.09-.73,2,2,0,0,0-.26-.63,1.55,1.55,0,0,0-.48-.44,1.47,1.47,0,0,0-.72-.16,1.42,1.42,0,0,0-.72.16A1.36,1.36,0,0,0,87,102a2,2,0,0,0-.27.63,2.92,2.92,0,0,0-.08.73A2.74,2.74,0,0,0,86.69,104Z"/><path class="cls-1" d="M93.87,100.46l2.38,3.83h0v-3.83h1.18v5.71H96.19l-2.38-3.82h0v3.82H92.62v-5.71Z"/><path class="cls-1" d="M100.31,104.76a1,1,0,0,0,.27.33,1.28,1.28,0,0,0,.41.18,1.86,1.86,0,0,0,.48.06l.36,0a1.08,1.08,0,0,0,.36-.11.74.74,0,0,0,.28-.22.56.56,0,0,0,.11-.35.5.5,0,0,0-.15-.38A1.3,1.3,0,0,0,102,104a5,5,0,0,0-.54-.17c-.2,0-.41-.1-.62-.16a6.36,6.36,0,0,1-.62-.19,2.35,2.35,0,0,1-.54-.3,1.57,1.57,0,0,1-.39-.46,1.41,1.41,0,0,1-.15-.67,1.43,1.43,0,0,1,.19-.76,1.59,1.59,0,0,1,.49-.54,2,2,0,0,1,.69-.32,2.87,2.87,0,0,1,.77-.11,4,4,0,0,1,.86.1,2.21,2.21,0,0,1,.73.33,1.75,1.75,0,0,1,.51.57,1.8,1.8,0,0,1,.19.84h-1.22a1,1,0,0,0-.11-.42.78.78,0,0,0-.24-.27,1,1,0,0,0-.35-.13,1.91,1.91,0,0,0-.43,0,1.53,1.53,0,0,0-.3,0,.86.86,0,0,0-.28.11.76.76,0,0,0-.2.2.49.49,0,0,0-.08.31.54.54,0,0,0,.06.27.58.58,0,0,0,.25.19,3.39,3.39,0,0,0,.52.18l.87.22a3.38,3.38,0,0,1,.44.12,2.06,2.06,0,0,1,.57.26,1.64,1.64,0,0,1,.48.5,1.33,1.33,0,0,1,.21.78,1.73,1.73,0,0,1-.15.73,1.62,1.62,0,0,1-.46.58,2.15,2.15,0,0,1-.74.38,3.73,3.73,0,0,1-2,0,2.53,2.53,0,0,1-.78-.36,1.82,1.82,0,0,1-.54-.63,1.89,1.89,0,0,1-.19-.92h1.22A1,1,0,0,0,100.31,104.76Z"/></svg>