<?xml version="1.0" encoding="UTF-8" standalone="no"?>
<!DOCTYPE svg PUBLIC "-//W3C//DTD SVG 1.1//EN" "http://www.w3.org/Graphics/SVG/1.1/DTD/svg11.dtd">
<svg version="1.1" xmlns="http://www.w3.org/2000/svg" xmlns:xlink="http://www.w3.org/1999/xlink" preserveAspectRatio="xMidYMid meet" viewBox="0 0 640 640" width="640" height="640"><defs><path d="M320.61 22.43C214.15 22.43 127.85 108.73 127.85 215.19C127.85 321.66 214.15 407.96 320.61 407.96C427.08 407.96 513.38 321.66 513.38 215.19C513.38 108.73 427.08 22.43 320.61 22.43Z" id="cWxlS3mPu"></path><path d="M407.07 183.33C408.62 183.01 409.74 181.64 409.73 180.05C409.73 179.7 409.73 176.87 409.73 176.52C409.73 168.74 403.42 162.44 395.65 162.44C393.97 162.44 385.55 162.44 370.41 162.44C370.41 158.02 370.41 155.56 370.41 155.07C370.43 151.28 367.39 148.18 363.6 148.16C363.58 148.16 363.56 148.16 363.55 148.16C350.67 148.16 247.7 148.16 234.83 148.16C231.01 148.16 227.92 151.25 227.92 155.07C227.92 155.07 227.92 155.07 227.92 155.07C227.92 161.13 227.92 209.58 227.92 215.64C227.94 217.49 229.44 218.99 231.3 219.02C233.13 219.02 234.62 217.53 234.62 215.69C234.62 215.67 234.62 215.66 234.62 215.64C234.62 211.6 234.62 191.41 234.62 155.07L363.55 154.81C363.55 191.31 363.55 211.58 363.55 215.64C363.55 217.5 365.06 219.02 366.92 219.02C368.76 219.02 370.25 217.53 370.25 215.69C370.25 215.67 370.25 215.66 370.25 215.64C370.25 215.39 370.25 214.12 370.25 211.85C394 211.85 407.19 211.85 409.83 211.85C414.53 211.93 418.64 215 420.07 219.48C419.05 219.48 410.85 219.48 409.83 219.48C407.99 219.48 406.5 220.97 406.5 222.81C406.5 222.81 406.5 222.81 406.5 222.81C406.5 223.52 406.5 229.26 406.5 229.97C406.5 235.67 411.05 240.33 416.74 240.47C416.99 240.47 418.26 240.47 420.53 240.47L420.53 255.16C415.49 255.16 412.69 255.16 412.13 255.16C408.33 244.09 396.27 238.21 385.2 242.01C379.02 244.14 374.17 248.99 372.04 255.16C371.94 255.16 371.39 255.16 370.41 255.16C370.41 240.14 370.41 231.8 370.41 230.13C370.43 228.29 368.97 226.78 367.13 226.75C367.11 226.75 367.1 226.75 367.08 226.75C365.21 226.75 363.7 228.26 363.7 230.13C363.7 231.81 363.7 240.2 363.7 255.32C322.01 255.32 298.85 255.32 294.22 255.32C290.41 244.25 278.35 238.36 267.28 242.17C261.11 244.29 256.25 249.14 254.13 255.32C252.84 255.32 246.41 255.32 234.83 255.32L234.83 247.74C243.55 247.74 248.4 247.74 249.37 247.74C251.21 247.74 252.7 246.25 252.7 244.41C252.7 242.57 251.22 241.06 249.37 241.03C246.13 241.03 220.25 241.03 217.01 241.03C215.14 241.03 213.63 242.55 213.63 244.41C213.63 246.25 215.12 247.74 216.96 247.74C216.98 247.74 216.99 247.74 217.01 247.74C217.74 247.74 221.37 247.74 227.92 247.74C227.92 252.16 227.92 254.62 227.92 255.11C227.92 258.93 231.01 262.03 234.83 262.03C234.83 262.03 234.83 262.03 234.83 262.03C236.04 262.03 242.08 262.03 252.95 262.03C252.95 262.03 252.95 262.03 252.95 262.03C253.53 273.75 263.5 282.78 275.22 282.2C286.13 281.67 294.86 272.94 295.4 262.03C295.4 262.03 295.4 262.03 295.4 262.03L370.87 262.03C370.87 262.03 370.87 262.03 370.87 262.03C371.44 273.75 381.41 282.78 393.13 282.2C404.05 281.67 412.78 272.94 413.31 262.03C413.31 262.03 413.31 262.03 413.31 262.03C419.89 262.03 423.54 262.03 424.27 262.03C426.11 262.03 427.6 260.54 427.6 258.7C427.6 258.7 427.6 258.7 427.6 258.7C427.6 255.11 427.6 226.44 427.6 222.86C427.6 214.13 421.22 206.71 412.6 205.4C412.6 205.4 407.62 185.54 407.07 183.33ZM370.41 169.05C385.55 169.05 393.97 169.05 395.65 169.05C399.69 169.02 402.99 172.27 403.02 176.32C403.02 176.35 403.02 176.38 403.02 176.42C403.02 176.42 403.02 176.42 403.02 176.42L370.41 176.42L370.41 169.05ZM370.41 205.19L370.41 183.43L400.2 183.43L405.68 205.4L370.41 205.19ZM274.15 276.87C266.12 276.87 259.61 270.36 259.61 262.33C259.61 254.3 266.12 247.79 274.15 247.79C282.18 247.79 288.69 254.3 288.69 262.33C288.69 262.35 288.69 262.37 288.69 262.38C288.63 270.37 282.13 276.8 274.15 276.77C274.15 276.79 274.15 276.85 274.15 276.87ZM391.91 276.87C383.88 276.87 377.37 270.36 377.37 262.33C377.37 254.3 383.88 247.79 391.91 247.79C399.94 247.79 406.45 254.3 406.45 262.33C406.45 262.35 406.45 262.37 406.45 262.38C406.4 270.31 399.99 276.71 392.06 276.77C392.03 276.79 391.94 276.85 391.91 276.87ZM420.74 234.02C418.46 234.02 417.2 234.02 416.95 234.02C414.85 234.02 413.16 232.32 413.16 230.23C413.16 229.97 413.16 228.69 413.16 226.39L420.89 226.39L420.89 234.02L420.74 234.02Z" id="ecCi9tbUX"></path><path d="M284.77 191.08L280.58 182.84L280.58 198.96L275.05 198.96L275.05 171.57L280.83 171.57L286.72 184.01L292.61 171.57L298.5 171.57L298.5 198.96L292.92 198.96L292.92 182.68L288.77 191.08L284.77 191.08Z" id="brucNTzh"></path><path d="M317.34 198.96L311.4 198.96L311.4 189.44C307.68 183.3 305.62 179.88 305.2 179.2C304.77 178.49 304.56 177.67 304.59 176.84C304.59 176.49 304.59 174.74 304.59 171.57L310.53 171.57C310.53 174.43 310.53 176.02 310.53 176.33C310.49 176.94 310.61 177.54 310.89 178.07C311.15 178.49 312.44 180.57 314.78 184.32C316.87 180.97 318.03 179.11 318.26 178.74C318.55 178.2 318.69 177.6 318.67 177C318.67 176.66 318.67 174.95 318.67 171.88L324.35 171.88C324.35 175.2 324.35 177.04 324.35 177.41C324.36 178.23 324.15 179.05 323.74 179.76C323.31 180.41 321.18 183.63 317.34 189.44L317.34 199.12L317.34 198.96Z" id="b2drnZVA4"></path><path d="M284.77 222.11L280.58 213.86L280.58 229.99L275.05 229.99L275.05 202.65L280.83 202.65L286.72 215.04L292.61 202.6L298.5 202.6L298.5 229.94L292.92 229.94L292.92 213.71L288.77 222.11L284.77 222.11Z" id="c1w3QoLCLt"></path><path d="M323.38 230.14C323.05 230.15 322.74 230.02 322.51 229.79C322.27 229.54 322.14 229.21 322.15 228.86C322.13 228.53 322.26 228.21 322.51 227.99C322.73 227.75 323.05 227.6 323.38 227.58C323.73 227.59 324.06 227.74 324.3 227.99C324.55 228.21 324.68 228.53 324.66 228.86C324.67 229.21 324.54 229.54 324.3 229.79C324.06 230.03 323.72 230.16 323.38 230.14ZM322.25 228.86C322.26 229.16 322.36 229.45 322.56 229.68C322.99 230.09 323.66 230.09 324.1 229.68C324.33 229.48 324.46 229.18 324.45 228.86C324.47 228.56 324.33 228.28 324.1 228.1C323.89 227.89 323.62 227.78 323.33 227.79C323.04 227.79 322.77 227.9 322.56 228.1C322.35 228.3 322.24 228.58 322.25 228.86ZM323.33 228.1C323.54 228.1 323.66 228.1 323.69 228.1C323.69 228.1 323.94 228.1 323.94 228.45C324 228.55 324 228.67 323.94 228.76C323.94 228.76 323.94 228.76 323.94 228.76L323.94 229.07L323.94 229.07C323.94 229.07 323.94 229.07 323.94 229.07C324 228.97 324 228.86 323.94 228.76C323.91 228.76 323.76 228.76 323.48 228.76L323.48 229.32L323.48 229.32L323.48 227.89L323.33 228.1ZM323.58 228.1L323.07 228.1L323.07 228.61C323.35 228.61 323.5 228.61 323.53 228.61C323.53 228.61 323.53 228.61 323.53 228.61C323.53 228.61 323.69 228.4 323.64 228.4C323.63 228.36 323.61 228.26 323.58 228.1Z" id="cJrO1JrjL"></path><path d="M109.21 462.8C110.95 462.81 112.68 463.1 114.33 463.67C115.91 464.26 117.34 465.18 118.53 466.38C119.78 467.66 120.75 469.2 121.34 470.89C122.04 472.93 122.37 475.08 122.32 477.24C122.35 479.23 122.07 481.21 121.5 483.12C121.03 484.85 120.2 486.46 119.04 487.83C117.89 489.13 116.47 490.18 114.89 490.91C113.05 491.7 111.06 492.09 109.06 492.03C108.23 492.03 104.08 492.03 96.61 492.03L96.61 462.8C103.33 462.8 107.53 462.8 109.21 462.8ZM108.75 486.4C109.67 486.4 110.58 486.26 111.46 485.99C112.36 485.68 113.17 485.15 113.82 484.45C114.55 483.68 115.11 482.75 115.46 481.74C115.9 480.42 116.11 479.04 116.07 477.64C116.09 476.3 115.93 474.96 115.61 473.65C115.39 472.55 114.92 471.51 114.23 470.63C113.56 469.75 112.65 469.07 111.62 468.68C110.35 468.18 108.99 467.94 107.62 467.97C107.32 467.97 105.78 467.97 103.01 467.97L103.01 486.4C106.07 486.4 107.98 486.4 108.75 486.4Z" id="b4JzL4rsbp"></path><path d="M152.93 462.8L152.93 467.92L137.57 467.92L137.57 474.21L151.76 474.21L151.76 479.33L137.47 479.33L137.47 486.4L153.24 486.4L153.24 492.03L131.07 492.03L131.07 462.8L152.93 462.8Z" id="j1RjiuPvz"></path><path d="M168.14 462.8L168.14 486.4L182.37 486.4L182.37 492.03L161.89 492.03L161.89 462.8L168.14 462.8Z" id="a1USu2vsWj"></path><path d="M196.51 462.8L196.51 492.03L190.05 492.03L190.05 462.8L196.51 462.8Z" id="g1fWyjw2jc"></path><path d="M212.58 492.03L203.16 462.8L209.92 462.8L216.47 483.28L216.47 483.28L223.08 462.8L229.73 462.8L220.01 492.03L212.58 492.03Z" id="aHZLgn0ko"></path><path d="M258.05 462.8L258.05 467.92L242.69 467.92L242.69 474.21L256.87 474.21L256.87 479.33L242.59 479.33L242.59 486.4L258.36 486.4L258.36 492.03L236.13 492.03L236.13 462.8L258.05 462.8Z" id="a1wqRNkkkI"></path><path d="M282.57 462.8C283.78 462.78 284.98 462.99 286.11 463.41C287.12 463.81 288.04 464.4 288.82 465.15C289.55 465.88 290.12 466.75 290.51 467.71C290.92 468.7 291.13 469.76 291.12 470.84C291.16 472.41 290.79 473.96 290.05 475.34C289.22 476.67 287.98 477.67 286.52 478.21C286.52 478.21 286.52 478.21 286.52 478.21C287.23 478.41 287.89 478.76 288.46 479.23C288.97 479.69 289.4 480.23 289.74 480.82C290.07 481.47 290.31 482.16 290.46 482.87C290.61 483.59 290.72 484.33 290.76 485.07C290.76 485.53 290.76 486.09 290.76 486.71C290.76 486.9 290.76 488.41 290.76 488.6C290.76 489.27 290.76 489.88 291.12 490.5C291.25 491.03 291.48 491.53 291.79 491.98C291.16 491.98 286.17 491.98 285.54 491.98C285.16 490.91 284.94 489.79 284.88 488.65C284.88 487.37 284.88 486.14 284.52 484.97C284.45 483.73 283.96 482.56 283.14 481.64C282.16 480.84 280.91 480.45 279.65 480.56C279.22 480.56 277.07 480.56 273.2 480.56L273.2 492.03L266.8 492.03L266.8 462.8C275.21 462.8 280.47 462.8 282.57 462.8ZM280.27 476.16C281.46 476.23 282.63 475.89 283.6 475.19C284.38 474.32 284.77 473.17 284.67 472.01C284.77 470.87 284.38 469.73 283.6 468.89C282.63 468.19 281.46 467.84 280.27 467.92C279.8 467.92 277.44 467.92 273.2 467.92L273.2 476.16C276.97 476.16 279.33 476.16 280.27 476.16Z" id="axcwP7iQP"></path><path d="M322.56 462.8L322.56 467.92L307.2 467.92L307.2 474.21L321.38 474.21L321.38 479.33L306.89 479.33L306.89 486.4L322.56 486.4L322.56 492.03L300.44 492.03L300.44 462.8L322.56 462.8Z" id="e1bWO09t0F"></path><path d="M343.71 462.8C345.45 462.81 347.18 463.1 348.83 463.67C350.4 464.26 351.84 465.18 353.02 466.38C354.28 467.66 355.24 469.2 355.84 470.89C356.53 472.93 356.86 475.08 356.81 477.24C356.84 479.23 356.57 481.21 355.99 483.12C355.53 484.85 354.69 486.46 353.54 487.83C352.38 489.13 350.97 490.18 349.39 490.91C347.55 491.7 345.56 492.09 343.55 492.03C342.72 492.03 338.58 492.03 331.11 492.03L331.11 462.8C337.83 462.8 342.03 462.8 343.71 462.8ZM343.04 486.4C343.96 486.4 344.87 486.26 345.75 485.99C346.65 485.66 347.45 485.14 348.11 484.45C348.85 483.68 349.4 482.75 349.75 481.74C350.19 480.42 350.4 479.04 350.36 477.64C350.38 476.3 350.22 474.96 349.9 473.65C349.68 472.55 349.21 471.51 348.52 470.63C347.85 469.75 346.94 469.07 345.91 468.68C344.64 468.18 343.28 467.94 341.91 467.97C341.61 467.97 340.07 467.97 337.31 467.97L337.31 486.4C340.36 486.4 342.28 486.4 343.04 486.4Z" id="b1doBLiZvO"></path><path d="M401.61 462.8L401.61 467.92L387.48 467.92L387.48 474.68L399.72 474.68L399.72 479.8L387.48 479.8L387.48 492.03L381.03 492.03L381.03 462.8L401.61 462.8Z" id="busecKjFI"></path><path d="M424.96 462.8C426.18 462.78 427.4 462.99 428.54 463.41C429.54 463.81 430.44 464.4 431.21 465.15C431.95 465.88 432.54 466.75 432.95 467.71C433.36 468.7 433.57 469.76 433.56 470.84C433.58 472.41 433.2 473.96 432.44 475.34C431.61 476.67 430.37 477.67 428.9 478.21C428.9 478.21 428.9 478.21 428.9 478.21C429.63 478.41 430.31 478.76 430.9 479.23C431.41 479.67 431.83 480.21 432.13 480.82C432.48 481.46 432.72 482.15 432.84 482.87C433 483.59 433.1 484.33 433.15 485.07C433.15 485.53 433.15 486.09 433.15 486.71C433.15 487.32 433.15 487.99 433.15 488.6C433.2 489.24 433.3 489.87 433.46 490.5C433.59 491.03 433.81 491.53 434.12 491.98C433.53 491.98 428.78 491.98 428.19 491.98C427.81 490.91 427.58 489.79 427.52 488.65C427.52 487.37 427.52 486.14 427.16 484.97C427.05 483.74 426.57 482.58 425.78 481.64C424.8 480.84 423.55 480.45 422.3 480.56C421.87 480.56 419.72 480.56 415.85 480.56L415.85 492.03L409.6 492.03L409.6 462.8C417.79 462.8 422.91 462.8 424.96 462.8ZM422.91 476.16C424.09 476.26 425.26 475.91 426.19 475.19C427.01 474.35 427.43 473.19 427.32 472.01C427.43 470.86 427.01 469.71 426.19 468.89C425.24 468.2 424.08 467.86 422.91 467.92C422.44 467.92 420.09 467.92 415.85 467.92L415.85 476.16C419.61 476.16 421.97 476.16 422.91 476.16Z" id="a3tQEQSg9"></path><path d="M464.95 462.8L464.95 467.92L449.59 467.92L449.59 474.21L463.72 474.21L463.72 479.33L449.54 479.33L449.54 486.4L465.31 486.4L465.31 492.03L443.08 492.03L443.08 462.8L464.95 462.8Z" id="e5jRa7cuvK"></path><path d="M480.05 486.5C480.67 486.93 481.37 487.24 482.1 487.42C482.9 487.63 483.73 487.73 484.56 487.73C485.17 487.78 485.79 487.78 486.4 487.73C487.04 487.65 487.67 487.46 488.24 487.17C488.82 486.94 489.32 486.55 489.68 486.04C490.1 485.54 490.32 484.9 490.29 484.25C490.32 483.52 490.04 482.81 489.52 482.3C488.93 481.79 488.25 481.38 487.53 481.08C486.62 480.73 485.7 480.44 484.76 480.2C483.69 480.2 482.66 479.69 481.59 479.39C480.51 479.14 479.45 478.81 478.41 478.41C477.41 478.04 476.46 477.52 475.6 476.88C474.77 476.24 474.09 475.44 473.6 474.52C473.08 473.45 472.84 472.28 472.88 471.09C472.85 469.74 473.17 468.4 473.8 467.2C474.43 466.09 475.31 465.15 476.36 464.44C477.4 463.66 478.59 463.1 479.85 462.8C481.13 462.44 482.46 462.25 483.79 462.23C485.27 462.24 486.75 462.42 488.19 462.75C489.53 463.07 490.8 463.64 491.93 464.44C493.03 465.17 493.93 466.18 494.54 467.35C495.23 468.68 495.57 470.16 495.51 471.65C494.89 471.65 489.89 471.65 489.27 471.65C489.26 470.91 489.08 470.17 488.76 469.5C488.42 468.96 487.99 468.49 487.48 468.12C486.92 467.79 486.32 467.56 485.68 467.46C484.97 467.38 484.25 467.38 483.53 467.46C483.01 467.4 482.47 467.4 481.95 467.46C481.45 467.56 480.99 467.75 480.56 468.02C480.13 468.28 479.77 468.63 479.49 469.04C479.2 469.52 479.06 470.07 479.08 470.63C479.05 471.12 479.17 471.6 479.44 472.01C479.76 472.46 480.2 472.8 480.72 472.99C481.57 473.37 482.47 473.68 483.38 473.91C483.68 473.98 485.16 474.36 487.83 475.03C489.19 475.4 489.94 475.61 490.09 475.65C491.11 475.93 492.08 476.38 492.95 476.98C493.95 477.66 494.8 478.53 495.46 479.54C496.18 480.74 496.54 482.13 496.49 483.53C496.5 484.82 496.24 486.1 495.72 487.27C495.21 488.44 494.42 489.46 493.41 490.24C492.29 491.15 490.98 491.82 489.57 492.19C486.32 493.07 482.89 493.07 479.64 492.19C478.21 491.82 476.85 491.2 475.65 490.34C474.49 489.49 473.54 488.39 472.88 487.12C472.15 485.66 471.8 484.04 471.86 482.41C472.48 482.41 477.48 482.41 478.11 482.41C478.08 483.24 478.25 484.06 478.62 484.81C478.95 485.48 479.44 486.06 480.05 486.5Z" id="a1FClLKBHs"></path><path d="M510.82 462.8L510.82 474.01L522.65 474.01L522.65 462.8L529.1 462.8L529.1 492.03L522.65 492.03L522.65 479.44L510.82 479.44L510.82 492.03L504.42 492.03L504.42 462.8L510.82 462.8Z" id="cvKYLyzRS"></path><path d="M544.97 485.73C544.97 489.51 544.97 491.61 544.97 492.03C544.97 492.91 544.79 493.78 544.46 494.59C544.11 495.34 543.64 496.03 543.08 496.64C542.48 497.22 541.79 497.68 541.03 498.02C540.25 498.39 539.42 498.64 538.57 498.79C538.57 498.49 538.57 496.12 538.57 495.82C539 495.76 539.4 495.6 539.75 495.36C540.09 495.11 540.4 494.82 540.67 494.49C540.96 494.15 541.17 493.75 541.29 493.31C541.36 492.89 541.36 492.46 541.29 492.03C541.09 492.03 540.1 492.03 538.32 492.03L538.32 485.73L544.97 485.73Z" id="esoyBmvcD"></path><path d="M177.46 514L189.7 533.61L189.7 533.61L189.7 514L195.74 514L195.74 543.23L189.44 543.23L177.31 523.67L177.31 523.67L177.31 543.23L171.11 543.23L171.11 514L177.46 514Z" id="hrinp9ghc"></path><path d="M208.08 517.53C209.33 516.13 210.87 515.02 212.58 514.25C216.48 512.68 220.82 512.68 224.72 514.25C226.43 515.03 227.96 516.14 229.22 517.53C230.49 519.04 231.44 520.78 232.04 522.65C232.71 524.61 233.04 526.67 233.01 528.74C233.03 530.76 232.71 532.77 232.04 534.68C231.43 536.46 230.47 538.09 229.22 539.49C227.97 540.88 226.43 541.98 224.72 542.72C220.82 544.29 216.48 544.29 212.58 542.72C210.86 541.99 209.32 540.89 208.08 539.49C206.83 538.09 205.87 536.46 205.26 534.68C204.59 532.77 204.26 530.76 204.29 528.74C204.26 526.67 204.59 524.61 205.26 522.65C205.86 520.78 206.81 519.04 208.08 517.53ZM212.48 535.6C213.19 536.44 214.06 537.12 215.04 537.6C216.19 538.16 217.45 538.44 218.73 538.42C220 538.45 221.27 538.17 222.41 537.6C223.4 537.06 224.25 536.29 224.87 535.35C225.54 534.41 226.01 533.35 226.25 532.22C226.56 531.05 226.72 529.85 226.71 528.64C226.72 527.38 226.56 526.12 226.25 524.9C226.01 523.75 225.54 522.65 224.87 521.68C224.25 520.74 223.4 519.96 222.41 519.42C221.28 518.83 220.01 518.55 218.73 518.6C217.45 518.56 216.18 518.84 215.04 519.42C214.07 519.99 213.23 520.76 212.58 521.68C211.96 522.67 211.51 523.76 211.25 524.9C210.94 526.12 210.79 527.38 210.79 528.64C210.73 529.93 210.85 531.22 211.15 532.48C211.4 533.59 211.85 534.65 212.48 535.6Z" id="m1ouZphWf0"></path><path d="M239.21 519.37L239.21 514.25L263.17 514.25L263.17 519.37L254.41 519.37L254.41 543.23L247.96 543.23L247.96 519.37L239.21 519.37Z" id="jemYQ5s1K"></path><path d="M306.69 514L306.69 519.12L292.56 519.12L292.56 525.88L304.79 525.88L304.79 531L292.56 531L292.56 543.08L286.11 543.08L286.11 513.84L306.69 514Z" id="a4wfmSmlE"></path><path d="M330.24 514C331.46 513.98 332.68 514.19 333.82 514.61C334.82 515.01 335.72 515.6 336.49 516.35C337.23 517.08 337.82 517.95 338.23 518.91C338.64 519.9 338.85 520.96 338.84 522.04C338.86 523.61 338.48 525.16 337.72 526.54C336.89 527.87 335.65 528.87 334.18 529.41C334.18 529.41 334.18 529.41 334.18 529.41C334.91 529.61 335.59 529.96 336.18 530.43C336.69 530.87 337.11 531.41 337.41 532.02C337.76 532.66 338 533.35 338.12 534.07C338.28 534.79 338.38 535.53 338.43 536.27C338.43 536.73 338.43 537.29 338.43 537.91C338.38 538.54 338.38 539.17 338.43 539.8C338.48 540.44 338.58 541.07 338.74 541.7C338.87 542.23 339.09 542.73 339.4 543.18C338.79 543.18 333.88 543.18 333.26 543.18C332.88 542.11 332.66 540.99 332.6 539.85C332.6 538.57 332.6 537.34 332.24 536.17C332.12 534.94 331.64 533.78 330.85 532.84C329.88 532.04 328.63 531.65 327.37 531.76C326.94 531.76 324.79 531.76 320.92 531.76L320.92 543.18L314.47 543.18L314.47 513.95C322.88 513.97 328.14 513.99 330.24 514ZM327.99 527.36C329.16 527.46 330.33 527.11 331.26 526.39C332.09 525.55 332.5 524.39 332.39 523.21C332.5 522.06 332.09 520.91 331.26 520.09C330.32 519.4 329.16 519.06 327.99 519.12C327.52 519.12 325.16 519.12 320.92 519.12L320.92 527.36C324.69 527.36 327.05 527.36 327.99 527.36Z" id="bCURDj0W"></path><path d="M350.72 517.53C351.97 516.13 353.51 515.02 355.23 514.25C357.14 513.46 359.19 513.06 361.27 513.08C363.34 513.04 365.4 513.45 367.31 514.25C369.02 515.02 370.56 516.13 371.81 517.53C373.1 519.02 374.06 520.77 374.63 522.65C375.32 524.61 375.66 526.67 375.65 528.74C375.66 530.77 375.31 532.78 374.63 534.68C374.04 536.47 373.08 538.11 371.81 539.49C370.57 540.89 369.03 541.99 367.31 542.72C365.4 543.53 363.34 543.93 361.27 543.9C359.19 543.92 357.14 543.52 355.23 542.72C353.5 541.99 351.96 540.89 350.72 539.49C349.43 538.11 348.46 536.47 347.85 534.68C347.21 532.77 346.88 530.76 346.88 528.74C346.88 526.67 347.21 524.62 347.85 522.65C348.44 520.76 349.42 519.02 350.72 517.53ZM355.12 535.6C355.75 536.54 356.59 537.32 357.58 537.86C359.92 538.95 362.62 538.95 364.95 537.86C365.94 537.32 366.79 536.54 367.41 535.6C367.98 534.63 368.4 533.58 368.64 532.48C368.91 531.3 369.04 530.1 369.05 528.9C369.05 527.64 368.91 526.39 368.64 525.16C368.35 524.02 367.88 522.93 367.26 521.93C366.63 520.99 365.79 520.22 364.8 519.68C362.46 518.59 359.76 518.59 357.43 519.68C356.44 520.22 355.59 520.99 354.97 521.93C354.34 522.93 353.88 524.02 353.59 525.16C353.32 526.39 353.18 527.64 353.18 528.9C353.23 530.11 353.42 531.31 353.74 532.48C354.03 533.59 354.5 534.64 355.12 535.6Z" id="au9wsUq2"></path><path d="M397.93 519.37L383.49 519.37L383.49 514.25L406.48 514.25L406.48 519.37L390.81 537.6L406.89 537.6L406.89 543.03L382.26 543.03L382.26 537.91L397.93 519.37Z" id="a9p6uO3GB"></path><path d="M436.63 514L436.63 519.12L421.27 519.12L421.27 525.41L435.2 525.41L435.2 530.53L421.17 530.53L421.17 537.6L436.94 537.6L436.94 543.03L414.72 543.03L414.72 513.79L436.63 514Z" id="a2VbYSzc19"></path><path d="M451.79 514L463.97 533.61L463.97 533.61L463.97 514L470.02 514L470.02 543.23L463.67 543.23L451.48 523.67L451.48 523.67L451.48 543.23L445.44 543.23L445.44 514L451.79 514Z" id="a2EEIUn0D"></path><path d="M311.86 222.11L307.66 213.86L307.66 229.99L302.13 229.99L302.13 202.65L307.91 202.65L313.8 215.04L319.69 202.6L325.58 202.6L325.58 229.94L320 229.94L320 213.71L315.85 222.11L311.86 222.11Z" id="bp1vR1aRM"></path></defs><g><g><use xlink:href="#cWxlS3mPu" opacity="1" fill="#231f20" fill-opacity="1"></use><g><use xlink:href="#cWxlS3mPu" opacity="1" fill-opacity="0" stroke="#000000" stroke-width="1" stroke-opacity="0"></use></g></g><g><use xlink:href="#ecCi9tbUX" opacity="1" fill="#ffffff" fill-opacity="1"></use><g><use xlink:href="#ecCi9tbUX" opacity="1" fill-opacity="0" stroke="#000000" stroke-width="1" stroke-opacity="0"></use></g></g><g><use xlink:href="#brucNTzh" opacity="1" fill="#ffffff" fill-opacity="1"></use><g><use xlink:href="#brucNTzh" opacity="1" fill-opacity="0" stroke="#000000" stroke-width="1" stroke-opacity="0"></use></g></g><g><use xlink:href="#b2drnZVA4" opacity="1" fill="#ffffff" fill-opacity="1"></use><g><use xlink:href="#b2drnZVA4" opacity="1" fill-opacity="0" stroke="#000000" stroke-width="1" stroke-opacity="0"></use></g></g><g><use xlink:href="#c1w3QoLCLt" opacity="1" fill="#ffffff" fill-opacity="1"></use><g><use xlink:href="#c1w3QoLCLt" opacity="1" fill-opacity="0" stroke="#000000" stroke-width="1" stroke-opacity="0"></use></g></g><g><use xlink:href="#cJrO1JrjL" opacity="1" fill="#ffffff" fill-opacity="1"></use><g><use xlink:href="#cJrO1JrjL" opacity="1" fill-opacity="0" stroke="#000000" stroke-width="1" stroke-opacity="0"></use></g></g><g><use xlink:href="#b4JzL4rsbp" opacity="1" fill="#231f20" fill-opacity="1"></use><g><use xlink:href="#b4JzL4rsbp" opacity="1" fill-opacity="0" stroke="#000000" stroke-width="1" stroke-opacity="0"></use></g></g><g><use xlink:href="#j1RjiuPvz" opacity="1" fill="#231f20" fill-opacity="1"></use><g><use xlink:href="#j1RjiuPvz" opacity="1" fill-opacity="0" stroke="#000000" stroke-width="1" stroke-opacity="0"></use></g></g><g><use xlink:href="#a1USu2vsWj" opacity="1" fill="#231f20" fill-opacity="1"></use><g><use xlink:href="#a1USu2vsWj" opacity="1" fill-opacity="0" stroke="#000000" stroke-width="1" stroke-opacity="0"></use></g></g><g><use xlink:href="#g1fWyjw2jc" opacity="1" fill="#231f20" fill-opacity="1"></use><g><use xlink:href="#g1fWyjw2jc" opacity="1" fill-opacity="0" stroke="#000000" stroke-width="1" stroke-opacity="0"></use></g></g><g><use xlink:href="#aHZLgn0ko" opacity="1" fill="#231f20" fill-opacity="1"></use><g><use xlink:href="#aHZLgn0ko" opacity="1" fill-opacity="0" stroke="#000000" stroke-width="1" stroke-opacity="0"></use></g></g><g><use xlink:href="#a1wqRNkkkI" opacity="1" fill="#231f20" fill-opacity="1"></use><g><use xlink:href="#a1wqRNkkkI" opacity="1" fill-opacity="0" stroke="#000000" stroke-width="1" stroke-opacity="0"></use></g></g><g><use xlink:href="#axcwP7iQP" opacity="1" fill="#231f20" fill-opacity="1"></use><g><use xlink:href="#axcwP7iQP" opacity="1" fill-opacity="0" stroke="#000000" stroke-width="1" stroke-opacity="0"></use></g></g><g><use xlink:href="#e1bWO09t0F" opacity="1" fill="#231f20" fill-opacity="1"></use><g><use xlink:href="#e1bWO09t0F" opacity="1" fill-opacity="0" stroke="#000000" stroke-width="1" stroke-opacity="0"></use></g></g><g><use xlink:href="#b1doBLiZvO" opacity="1" fill="#231f20" fill-opacity="1"></use><g><use xlink:href="#b1doBLiZvO" opacity="1" fill-opacity="0" stroke="#000000" stroke-width="1" stroke-opacity="0"></use></g></g><g><use xlink:href="#busecKjFI" opacity="1" fill="#231f20" fill-opacity="1"></use><g><use xlink:href="#busecKjFI" opacity="1" fill-opacity="0" stroke="#000000" stroke-width="1" stroke-opacity="0"></use></g></g><g><use xlink:href="#a3tQEQSg9" opacity="1" fill="#231f20" fill-opacity="1"></use><g><use xlink:href="#a3tQEQSg9" opacity="1" fill-opacity="0" stroke="#000000" stroke-width="1" stroke-opacity="0"></use></g></g><g><use xlink:href="#e5jRa7cuvK" opacity="1" fill="#231f20" fill-opacity="1"></use><g><use xlink:href="#e5jRa7cuvK" opacity="1" fill-opacity="0" stroke="#000000" stroke-width="1" stroke-opacity="0"></use></g></g><g><use xlink:href="#a1FClLKBHs" opacity="1" fill="#231f20" fill-opacity="1"></use><g><use xlink:href="#a1FClLKBHs" opacity="1" fill-opacity="0" stroke="#000000" stroke-width="1" stroke-opacity="0"></use></g></g><g><use xlink:href="#cvKYLyzRS" opacity="1" fill="#231f20" fill-opacity="1"></use><g><use xlink:href="#cvKYLyzRS" opacity="1" fill-opacity="0" stroke="#000000" stroke-width="1" stroke-opacity="0"></use></g></g><g><use xlink:href="#esoyBmvcD" opacity="1" fill="#231f20" fill-opacity="1"></use><g><use xlink:href="#esoyBmvcD" opacity="1" fill-opacity="0" stroke="#000000" stroke-width="1" stroke-opacity="0"></use></g></g><g><use xlink:href="#hrinp9ghc" opacity="1" fill="#231f20" fill-opacity="1"></use><g><use xlink:href="#hrinp9ghc" opacity="1" fill-opacity="0" stroke="#000000" stroke-width="1" stroke-opacity="0"></use></g></g><g><use xlink:href="#m1ouZphWf0" opacity="1" fill="#231f20" fill-opacity="1"></use><g><use xlink:href="#m1ouZphWf0" opacity="1" fill-opacity="0" stroke="#000000" stroke-width="1" stroke-opacity="0"></use></g></g><g><use xlink:href="#jemYQ5s1K" opacity="1" fill="#231f20" fill-opacity="1"></use><g><use xlink:href="#jemYQ5s1K" opacity="1" fill-opacity="0" stroke="#000000" stroke-width="1" stroke-opacity="0"></use></g></g><g><use xlink:href="#a4wfmSmlE" opacity="1" fill="#231f20" fill-opacity="1"></use><g><use xlink:href="#a4wfmSmlE" opacity="1" fill-opacity="0" stroke="#000000" stroke-width="1" stroke-opacity="0"></use></g></g><g><use xlink:href="#bCURDj0W" opacity="1" fill="#231f20" fill-opacity="1"></use><g><use xlink:href="#bCURDj0W" opacity="1" fill-opacity="0" stroke="#000000" stroke-width="1" stroke-opacity="0"></use></g></g><g><use xlink:href="#au9wsUq2" opacity="1" fill="#231f20" fill-opacity="1"></use><g><use xlink:href="#au9wsUq2" opacity="1" fill-opacity="0" stroke="#000000" stroke-width="1" stroke-opacity="0"></use></g></g><g><use xlink:href="#a9p6uO3GB" opacity="1" fill="#231f20" fill-opacity="1"></use><g><use xlink:href="#a9p6uO3GB" opacity="1" fill-opacity="0" stroke="#000000" stroke-width="1" stroke-opacity="0"></use></g></g><g><use xlink:href="#a2VbYSzc19" opacity="1" fill="#231f20" fill-opacity="1"></use><g><use xlink:href="#a2VbYSzc19" opacity="1" fill-opacity="0" stroke="#000000" stroke-width="1" stroke-opacity="0"></use></g></g><g><use xlink:href="#a2EEIUn0D" opacity="1" fill="#231f20" fill-opacity="1"></use><g><use xlink:href="#a2EEIUn0D" opacity="1" fill-opacity="0" stroke="#000000" stroke-width="1" stroke-opacity="0"></use></g></g><g><use xlink:href="#bp1vR1aRM" opacity="1" fill="#ffffff" fill-opacity="1"></use><g><use xlink:href="#bp1vR1aRM" opacity="1" fill-opacity="0" stroke="#000000" stroke-width="1" stroke-opacity="0"></use></g></g></g></svg>