<?xml version="1.0" encoding="utf-8"?>
<!-- Generator: Adobe Illustrator 23.0.2, SVG Export Plug-In . SVG Version: 6.00 Build 0)  -->
<svg version="1.1" id="Layer_1" xmlns="http://www.w3.org/2000/svg" xmlns:xlink="http://www.w3.org/1999/xlink" x="0px" y="0px"
	 viewBox="0 0 400 400" style="enable-background:new 0 0 400 400;" width="400" height="400" xml:space="preserve">
<style type="text/css">
	.st0{fill:#231F20;}
	.st1{opacity:2.000000e-02;}
	.st2{fill:#FFFFFF;}
</style>
<title>MYMC_Pattern_Website</title>
<rect x="0" y="0" class="st0" width="400" height="400"/>
<g class="st1">
	<g>
		<g>
			<path class="st2" d="M340.7,327.6c-13.8-6.7-27.1-14.7-38.2-25.2c-6.9-6.5-13-13.8-18.1-21.8c-10.4-15.7-17.5-33.3-25-50.4
				c-5.3-11.9-10.8-23.8-17.9-34.8c-8.3-13-18.9-24.3-31.5-33.2c-13.8-9.9-29.4-16.9-44.9-23.7s-31.3-13.5-45.5-22.8
				c-7.3-4.7-14-10.2-20.1-16.4c-10-10-17.8-22-24.3-34.5c-11-21.3-18.7-44.3-31-64.9H34c2.3,3.4,4.5,7,6.5,10.6
				C53,33,60.8,57.9,73.8,80.1c-4.2-2.4-8.5-4.8-12.9-6.9c-0.3-0.1-0.6-0.2-0.7-0.5c-9.4-19-16.5-39.2-27.1-57.6
				c-3-5.2-6.3-10.2-9.9-15.1H12c0.6,0.7,1.2,1.4,1.8,2.1c5.3,6.5,10,13.4,14,20.7c8,14.3,14.1,29.6,20.8,44.6
				c-3.7-1.7-7.4-3.3-11.2-4.9C32.2,50.4,27,38.4,20.4,27C14.8,17.1,8,8.1,0,0v13c5.6,6.7,10.6,13.9,14.9,21.6
				c4.2,7.4,7.9,15.2,11.4,23c-4-1.7-7.9-3.6-11.8-5.5c-4.2-8.7-9-17-14.6-24.8V43l1.1,1.8c-0.4-0.2-0.7-0.4-1.1-0.6V54
				c10.4,5.7,21.4,10.5,32.3,15.2c13.5,5.9,27,11.8,39.5,19.7c6.9,4.3,13.4,9.3,19.4,14.9c9.8,9.4,18.1,20.3,24.5,32.2
				c12.2,21.9,19.9,46.1,32.4,67.8c4.2,7.3,9,14.2,14.4,20.7c7.2,8.4,15.5,15.8,24.8,21.9c11.5,7.7,24.1,13.6,36.7,19.2
				c16,7,32.2,13.7,47.1,22.9c7.6,4.7,14.7,10.1,21.1,16.2c7,6.8,13.2,14.4,18.4,22.7c11.5,17.9,18.9,38,27.7,57.2
				c2.4,5.2,5,10.4,7.7,15.5h9.8c-0.2-0.4-0.4-0.7-0.7-1.1l1.8,1.1h15.7c-7.9-5.5-16.2-10.4-24.8-14.6c-1.9-3.9-3.7-7.8-5.5-11.8
				c11.6,5.2,23,10.8,33.5,18c3.8,2.6,7.5,5.4,11,8.4h13c-1.1-1.1-2.1-2.1-3.2-3.1c-7.8-7.1-16.5-13.3-25.8-18.4
				c-10.8-6.1-22.2-11-33.5-16c-1.6-3.7-3.3-7.5-4.9-11.2c12.3,5.5,24.9,10.6,36.9,16.8c10.1,5,19.6,11,28.4,18.1
				c0.7,0.6,1.4,1.2,2.1,1.8v-11.3c-1.5-1.1-3-2.2-4.5-3.2c-9.2-6.2-19-11.6-29.1-16.1c-12.7-5.9-25.7-11.1-38.4-17.2
				c-0.4-0.2-1-0.3-1.2-0.8c-2.2-4.5-4.5-8.8-7-13.1c24.1,14.1,51.3,22.1,75.2,36.7c1.6,1,3.3,2.1,4.9,3.1v-10.2
				c-6.6-3.9-13.4-7.4-20.4-10.6C366.8,339.2,353.5,333.9,340.7,327.6z M175,225c-7.7-7.8-14.4-16.6-19.9-26.1
				c8.3,4.8,16.1,10.5,23.2,17c9,8.5,16.6,18.2,22.8,28.9C191.6,239.4,182.8,232.7,175,225z M214.6,252.1
				c-6.9-14.2-15.3-27.8-26.5-39c-11.4-11.7-25.5-20.5-40.2-27.7c-1.9-3.9-3.7-7.8-5.5-11.8c13.7,6.1,27.2,12.9,39.2,22
				c4.9,3.7,9.5,7.8,13.8,12.2c8.2,8.7,15.2,18.4,20.8,28.9c3.7,6.7,7,13.7,10.1,20.7C222.4,255.8,218.5,254,214.6,252.1
				L214.6,252.1z M237.5,262.5c-4-9.2-8-18.4-12.7-27.3c-6.7-13.1-15-25.6-25.6-35.9c-9.5-9.5-20.8-17-32.7-23.2
				c-9.5-5-19.3-9.3-29.1-13.6c-1.6-3.7-3.3-7.5-4.9-11.2c14.5,6.5,29.4,12.5,43.4,20.2c9.9,5.3,19.1,11.8,27.4,19.4
				c4.7,4.4,9.1,9.2,13.1,14.4c8.3,10.8,14.7,22.8,20.3,35.2c4.1,8.9,7.9,18,11.9,26.9C245,265.8,241.2,264.1,237.5,262.5
				L237.5,262.5z M260.4,272.9c-9.6-19.4-16.8-40.1-27.8-58.9c-6.5-11.4-14.7-21.7-24.4-30.6c-4.9-4.4-10.2-8.5-15.8-12.1
				c-13-8.4-27.1-14.7-41.3-20.9c-8.1-3.6-16.2-7-24.1-11c-2.3-4.5-4.6-9-7.2-13.4c22.3,13,47.1,20.8,69.6,33.4
				c11.7,6.4,22.4,14.5,31.6,24.1c9.2,9.7,16.6,21.2,22.7,33.1c10.7,20.8,18.2,43.1,30.1,63.3C269.5,277.5,265,275.1,260.4,272.9
				L260.4,272.9z"/>
			<path class="st2" d="M363.2,238.3c-8.2-8.3-17.5-15.3-27.6-21.1c-16.5-9.6-34.4-16.3-51.7-24.3c-12.6-5.8-25-12.5-36-21.1
				c-4.6-3.6-8.8-7.5-12.8-11.7c-7.7-8.3-14.3-17.5-19.7-27.4c-12.3-22.2-20-46.6-32.8-68.5c-6.2-10.9-14-20.8-23.1-29.4
				c-9-8.3-19.1-15.3-30-20.9C119.9,8.7,110,4.3,100,0H79.6c16.1,7.4,32.6,13.7,48,22.5c10.3,5.7,19.9,12.8,28.3,21
				c7.7,7.7,14.3,16.3,19.8,25.7c8.5,14.2,14.7,29.6,21.4,44.7c5.6,12.7,11.6,25.4,19.4,36.9c4.4,6.6,9.5,12.8,15.2,18.4
				c5.4,5.3,11.2,10.1,17.5,14.3c10.5,7.1,21.8,12.7,33.4,17.8c16.7,7.5,33.9,14.2,49.6,23.8c7.3,4.4,14.1,9.4,20.4,15.2
				c6,5.5,11.3,11.5,16.1,18.1c8.2,11.4,14.5,24,20.2,36.8c3.8,8.4,7.3,16.9,11.1,25.2V300c-3.7-8.5-7.4-17-11.6-25.2
				C381.7,261.5,373.7,248.8,363.2,238.3L363.2,238.3z"/>
			<path class="st2" d="M373.4,223.4c-10.5-10.1-22.9-18-35.9-24.5c-17.2-8.6-35.3-15.3-52.4-24.1c-12.4-6.4-24.3-14.1-34.2-24
				c-9.1-8.8-16.5-19.3-22.7-30.4c-12-21.5-19.6-45.1-31.7-66.6c-5.7-10.5-12.9-20.2-21.3-28.7c-6.8-6.8-14.4-12.8-22.7-17.9
				c-4.2-2.6-8.5-5.1-13-7.3h-19.2c10.5,4.6,20.7,10.1,30.3,16.4c7.2,4.8,13.8,10.3,19.8,16.5c9.6,9.9,17.2,21.7,23.4,33.9
				c10.8,20.9,18.3,43.4,30.3,63.6c6.1,10.6,13.8,20.3,22.7,28.7c6.2,5.8,13.1,10.9,20.3,15.3c25.4,15.6,54.5,23.6,79.7,39.5
				c8.6,5.3,16.5,11.7,23.5,18.9c6,6.3,11.4,13.3,16,20.7c5.1,8.4,9.7,17.1,13.7,26.1v-19.2c-6.1-11.9-13.4-23.2-22.6-32.9
				C376.1,226.1,374.7,224.8,373.4,223.4z"/>
			<path class="st2" d="M387.2,212.2c-9.6-9.6-21.1-17.3-33.1-23.6c-16.9-9-34.9-15.5-52-24c-12.6-6.2-24.8-13.5-35.2-22.9
				C257.4,133,249.4,123,243,112c-13.2-22.2-20.9-47-33.4-69.5c-5.9-10.9-13.3-21-21.9-29.8C183,8,178.1,3.8,172.7,0H157
				c2.5,1.5,5,3.2,7.5,4.8c7.1,4.9,13.7,10.5,19.6,16.8c4.7,5.1,9,10.6,12.9,16.5c9.1,13.8,15.7,29.1,22.3,44.2s13.4,30.6,22.9,44.3
				c4.9,7.2,10.6,13.9,17,19.8c6,5.6,12.6,10.6,19.6,14.9c24.8,15.4,53.3,23.5,78.3,38.6c7.6,4.5,14.7,9.8,21.2,15.8
				c8.5,8,15.8,17.1,21.8,27.2v-15.7C396.2,221.9,391.9,216.8,387.2,212.2z"/>
			<path class="st2" d="M379.5,172.8c-13.7-23.7-21.6-50.2-35.8-73.6c-5.2-8.8-11.6-16.9-18.8-24.2c-6.5-6.5-13.8-12.3-21.7-17.2
				c-21.4-13.6-45.8-21.4-68.2-33c-12.1-6.2-23.7-13.7-33.5-23.2L200.1,0H187c3.3,2.8,6.4,5.8,9.3,8.9c5.5,5.9,10.3,12.2,14.6,19
				c8,12.6,14,26.3,19.9,39.9c6.7,15.3,13.4,30.8,22.7,44.8c6.7,10.2,14.9,19.2,24.3,26.9c10,8.1,21.2,14.5,32.8,20
				c16.5,8,33.8,14.4,50,23c8.3,4.3,16.1,9.4,23.5,15.2c5.8,4.6,11.1,9.8,15.8,15.4v-13C392,191.9,385.1,182.8,379.5,172.8
				L379.5,172.8z M276.1,126c-8.2-8-15.2-17.1-20.9-27.1c8.3,4.8,16.1,10.5,23.2,17c9,8.5,16.6,18.2,22.8,28.9
				C292,139.6,283.6,133.3,276.1,126L276.1,126z M314.6,152c-7.2-14.8-16.1-28.9-27.9-40.4c-11.2-11-24.7-19.4-38.8-26.3
				c-1.9-3.9-3.7-7.8-5.5-11.8c13.7,6.1,27.2,12.9,39.2,22c4.9,3.7,9.5,7.8,13.7,12.2c7.1,7.5,13.4,15.9,18.5,24.9
				c4.6,8,8.7,16.3,12.5,24.8C322.4,155.8,318.5,153.9,314.6,152L314.6,152z M337.5,162.5c-3.9-8.9-7.8-17.9-12.3-26.6
				c-6.7-13.1-14.8-25.7-25.4-36.1c-10.1-10.2-22.2-18.1-34.9-24.7c-8.9-4.6-18.2-8.7-27.4-12.7c-1.6-3.7-3.3-7.5-4.9-11.2
				c14.6,6.6,29.5,12.5,43.5,20.2c13.3,7.3,25.7,16.5,35.6,28c7.2,8.4,13.4,17.6,18.4,27.5c7,13.1,12.5,26.9,18.6,40.4
				C345,165.8,341.2,164.1,337.5,162.5L337.5,162.5z M360.9,173.1c-0.2-0.1-0.4-0.2-0.5-0.4c-8.6-17.5-15.3-35.8-24.5-53
				c-6.5-12.1-14.3-23.5-24.1-33.1c-8.5-8.2-18.1-15.3-28.5-20.9C265.4,55.8,246.2,48.9,228,40c-0.4-0.2-0.9-0.3-1.1-0.8
				c-2.2-4.4-4.5-8.8-7-13.1c22.3,13.1,47.1,20.9,69.7,33.5c11.7,6.4,22.4,14.5,31.6,24.1c6.7,7.3,12.7,15.3,17.6,23.9
				c13.6,23.2,21.5,49.3,35.1,72.5C369.6,177.6,365.3,175.3,360.9,173.1L360.9,173.1z"/>
			<path class="st2" d="M305.1,48.8c-2.5-4.3-4.8-8.7-7-13.1c-0.1-0.3-0.4-0.4-0.7-0.5c-16-7.8-32.7-14.1-48.5-22.2
				c-7.5-3.8-14.8-8.1-21.7-13H213c8.7,7.3,18.3,13.5,28.5,18.7C262.3,29.4,284.8,37,305.1,48.8L305.1,48.8z"/>
			<path class="st2" d="M292.4,23.7c-1.7-3.7-3.3-7.4-4.9-11.2c-8.2-3.6-16.4-7.1-24.3-11.1c-0.9-0.5-1.8-0.9-2.7-1.4H243
				c1.9,1.1,3.7,2.2,5.6,3.3C262.7,11.1,277.7,17.1,292.4,23.7L292.4,23.7z"/>
			<path class="st2" d="M282,0h-2.3l3,1.3L282,0z"/>
			<path class="st2" d="M337.8,62.8c-9.2-9.1-16.7-19.8-22.9-31.2C309.3,21.4,304.7,10.7,300,0h-9c6.9,15.6,13.4,31.4,22.4,46
				c5.1,8.4,11.2,16.2,18.2,23.1c10.3,10.2,22.6,18.2,35.4,24.8c10.7,5.5,21.9,10.2,33,15.1v-9c-14.8-6.5-29.7-13-43.2-21.9
				C350,73.6,343.6,68.5,337.8,62.8L337.8,62.8z"/>
			<path class="st2" d="M374.7,69c-8.1-4.8-15.6-10.4-22.5-16.9c-2.7-2.7-5.5-5.4-8-8.3c-8.2-9.5-14.8-20.3-20.4-31.5
				c-2-4.1-3.9-8.2-5.8-12.3h-9c4.4,10.4,9.5,20.6,15.1,30.5c5.8,10.1,13,19.4,21.4,27.5c6.2,5.9,13,11.2,20.3,15.7
				c10.9,6.8,22.5,12.2,34.2,17.3v-9C391.3,78.2,382.9,73.8,374.7,69z"/>
			<path class="st2" d="M352.2,39.4c5.6,6.2,11.8,11.7,18.5,16.6c7,5,14.4,9.5,22.1,13.3c2.4,1.2,4.8,2.4,7.2,3.5v-9.3
				c-4.2-2.1-8.3-4.3-12.3-6.7c-9.5-5.5-18.2-12.3-25.9-20.1C351.2,26.1,343.1,13.3,336.5,0h-9.3c1.4,3,2.9,6.1,4.5,9
				C337.1,20,344,30.2,352.2,39.4L352.2,39.4z"/>
			<path class="st2" d="M397.3,10c0.9,1,1.8,2,2.7,3V0l0,0h-13C390.7,3.1,394.1,6.4,397.3,10L397.3,10z"/>
			<path class="st2" d="M384.1,21.7c6,6.5,11.4,13.7,15.9,21.3V27.3c-4.9-6.8-10.5-13.1-16.7-18.8c-3.3-3-6.9-5.9-10.5-8.5H357
				C367,5.9,376.1,13.2,384.1,21.7L384.1,21.7z"/>
			<path class="st2" d="M366.8,29.2c5.7,6,12,11.3,18.8,16c4.6,3.2,9.5,6.1,14.4,8.8v-9.8c-8.7-5.1-16.8-11.2-24-18.3
				c-7.9-7.7-14.6-16.4-20.2-25.9H346c1.2,2.3,2.5,4.6,3.9,6.8C354.7,14.9,360.4,22.4,366.8,29.2L366.8,29.2z"/>
			<path class="st2" d="M92.1,76.7C99.8,88,109.5,98,120.7,106c9.8,7.2,20.6,12.8,31.7,17.9c17.7,8.2,35.9,15.1,52.8,24.9
				c-2.6-4.4-4.9-8.9-7.2-13.4c-18.1-8.9-37.2-15.8-55-25.6c-10.1-5.4-19.5-12.1-28-19.9C102.9,78.7,93.8,64.7,86.4,50
				C78.5,34.3,72.3,17.8,64.6,2.1c-1.4-0.7-2.8-1.4-4.1-2.1H54c6,11.1,11,22.7,16,34.2C76.4,48.8,83,63.5,92.1,76.7L92.1,76.7z"/>
			<path class="st2" d="M187.3,112.4c-9.7-4.2-19.5-8.5-28.8-13.4c-11.9-6.3-23.3-13.8-32.9-23.4c-6.4-6.3-12.1-13.3-16.9-20.9
				c-8.6-13.3-14.9-27.8-21.2-42.2c-3.7-1.6-7.5-3.3-11.2-4.9C83,22.4,89,37.5,96.9,51.6c6.6,12,14.8,23.2,24.9,32.5
				c8.6,7.9,18.2,14.6,28.6,20.1c13.6,7.4,28,13.2,42.1,19.5c-1.6-3.6-3.2-7.3-4.8-10.9C187.6,112.6,187.5,112.5,187.3,112.4
				L187.3,112.4z"/>
			<path class="st2" d="M128.8,66.2c7.4,7.9,15.9,14.7,25.1,20.3c9.2,5.6,18.8,10.5,28.7,14.8c-1.6-3.6-3.3-7.2-5-10.8
				c-0.2-0.4-0.3-1-0.8-1.2c-14.4-7-28.1-15.7-39.4-27.1c-11.2-11.2-19.7-24.7-26.6-38.8c-0.1-0.2-0.2-0.5-0.5-0.6
				c-3.8-1.9-7.7-3.7-11.6-5.4c2.4,5.3,4.8,10.5,7.5,15.7C112.2,45,119.6,56.4,128.8,66.2L128.8,66.2z"/>
			<path class="st2" d="M146.7,59.1c7.1,6.5,14.8,12.2,23.1,17c-10.9-19.2-26.8-35.1-46-46C130,40.9,137.7,50.6,146.7,59.1
				L146.7,59.1z"/>
			<path class="st2" d="M289.9,315c-9.7-10.5-21.6-18.8-34.1-25.5c-16.7-9-34.5-15.6-51.5-23.8c-11.9-5.7-23.5-12.3-33.7-20.7
				c-4-3.3-7.7-6.8-11.2-10.6c-9.7-10.4-17.2-22.6-23.5-35.3c-8-16-14.3-32.9-22.4-48.9c-6.8-13.6-15-26.6-25.8-37.4
				c-6.5-6.5-13.6-12.2-21.3-17.1C45.6,82.4,22,74.6,0,63.5v9.3c5.2,2.5,10.4,4.8,15.7,7.1c15.7,6.9,31.6,13.6,45.9,23
				C68,107,74,111.8,79.5,117c6.6,6.4,12.5,13.5,17.5,21.2c9.1,13.8,15.7,29,22.2,44.2c6,13.8,12.2,27.7,20.3,40.5
				c7.4,11.7,16.7,22,27.6,30.5c11.3,8.8,24.1,15.5,37.1,21.5c16.8,7.7,34.1,14.3,50.1,23.6c8.3,4.8,16.1,10.4,23.3,16.9
				c5.2,4.8,9.9,10,14.2,15.6c8.8,11.6,15.5,24.7,21.4,37.9c4.7,10.4,9,20.9,13.9,31.2h9.3c-9.8-19.5-17-40.3-27.9-59.3
				C303.4,331.4,297.2,322.8,289.9,315z"/>
			<path class="st2" d="M280.8,331.3c-8.1-9.4-17.7-17.4-28.2-23.9c-25.1-15.7-54.1-23.7-79.3-39.2c-8.8-5.3-16.9-11.7-24.1-19.1
				c-9.9-9.9-17.6-21.8-24-34.2c-11.6-22.4-19.5-46.8-33-68.2c-4.9-7.8-10.6-15.1-17.2-21.6c-6.9-6.9-14.6-12.9-22.9-18
				C37.9,98.2,22.3,91.8,7,85.1c-2.3-1-4.7-2.1-7-3.1v9c11.1,4.9,22.3,9.6,33.1,15.1c11.4,5.8,22.3,12.8,31.8,21.4
				c5.8,5.3,11.1,11.2,15.8,17.6c7.1,9.7,12.8,20.4,17.9,31.3c7.3,15.5,13.4,31.6,21.5,46.7c3.7,7.2,8,14,12.8,20.5
				c6.3,8.4,13.6,15.9,21.9,22.3c10.3,8.1,21.9,14.4,33.7,19.9c15.7,7.4,32,13.6,47.4,21.8c12.7,6.7,24.7,15,34.6,25.4
				c8.8,9.4,16.3,20,22.2,31.6c6.1,11.5,11.1,23.6,16.4,35.5h9c-4.6-10.2-8.9-20.5-13.6-30.7C298,355.8,290.6,342.6,280.8,331.3
				L280.8,331.3z"/>
			<path class="st2" d="M262.4,337.5c-9.9-10-21.8-17.9-34.3-24.4c-17.2-9-35.6-15.7-52.9-24.4c-13.6-6.8-26.7-15.1-37.4-25.9
				c-10.3-10.2-18.4-22.4-25-35.2c-8.1-15.6-14.3-32-21.9-47.8c-6.4-13.5-14-26.5-24.1-37.7c-8.5-9.3-18.3-17.3-29.2-23.7
				C25.6,111.2,12.8,105.6,0,100v9c13.3,5.8,26.5,12,38.5,20.2c8.1,5.5,15.6,11.9,22.1,19.2C66,154.4,70.8,161,75,168
				c12,19.8,19.6,41.9,29.9,62.6c6.4,12.8,14,25.2,24,35.7c9.7,10.4,21.4,18.6,33.8,25.3c8.5,4.6,17.3,8.6,26.1,12.5
				c16.6,7.3,33.5,14.3,48.6,24.3c6.6,4.3,12.7,9.3,18.4,14.8c5.7,5.6,10.9,11.8,15.3,18.5c8,11.8,14,24.7,19.7,37.6l0.3,0.7h9
				c-5.6-12.8-11.1-25.6-18.3-37.6C276.4,353.3,269.9,344.9,262.4,337.5L262.4,337.5z"/>
			<path class="st2" d="M364.9,102.8c-0.2-0.3-0.3-0.7-0.6-0.9c-4.5-2.2-8.8-4.5-13.1-7c14,23.9,22,50.9,36.4,74.6
				c3.7,6.1,7.9,12,12.5,17.4v-14.3c-2.4-3.3-4.7-6.8-6.8-10.4C381.9,143.4,374.6,122.5,364.9,102.8z"/>
			<path class="st2" d="M8.9,196.3C15,202,21.6,207,28.6,211.4c24.2,15.1,51.9,23.1,76.5,37.5c-2.5-4.3-4.8-8.7-7-13.1
				c-0.1-0.2-0.3-0.4-0.5-0.5c-16-7.8-32.7-14.1-48.5-22.2c-13.2-6.7-25.8-14.8-36.3-25.3c-4.7-4.6-9-9.7-12.8-15V187
				C2.8,190.3,5.7,193.4,8.9,196.3L8.9,196.3z"/>
			<path class="st2" d="M21.7,184.1c7.6,7,16.1,13.1,25.2,18.2c14.6,8.3,30.2,14.5,45.5,21.4c-1.7-3.7-3.3-7.4-4.9-11.1
				C77.8,208.2,68,204,58.6,199c-12-6.3-23.5-13.9-33.1-23.6c-5.7-5.6-10.9-11.8-15.3-18.5C6.4,151.3,3,145.5,0,139.5V157
				C5.9,167,13.3,176.1,21.7,184.1L21.7,184.1z"/>
			<path class="st2" d="M376.3,107.6c7.5,16.7,14.2,33.8,23.7,49.4v-17.5c-4.6-8.8-8.5-18-12.5-27.1
				C383.8,110.9,380.1,109.2,376.3,107.6z"/>
			<path class="st2" d="M28.8,166.2c7.6,8,16.2,14.9,25.6,20.6c9,5.4,18.4,10.3,28.1,14.5c-1.6-3.6-3.3-7.3-5.1-10.9
				c-0.2-0.4-0.3-0.9-0.7-1c-7.2-3.5-14.1-7.4-20.7-11.8c-8.3-5.5-15.9-12-22.5-19.3C24.1,148,16.8,136,10.7,123.5
				c-0.1-0.2-0.2-0.5-0.5-0.6c-3.4-1.7-6.8-3.3-10.2-4.8v2.3c2,4.3,4,8.5,6.1,12.7C12.2,145,19.6,156.4,28.8,166.2L28.8,166.2z"/>
			<path class="st2" d="M400,120.4V118l-1.3-0.6C399.1,118.4,399.6,119.4,400,120.4L400,120.4z"/>
			<path class="st2" d="M49.9,150c-7.8-7.7-16.5-14.4-26-19.8c4.2,7.2,9.1,14.1,14.5,20.4c9,10.2,19.6,18.8,31.5,25.6
				C64.4,166.6,57.7,157.8,49.9,150L49.9,150z"/>
			<path class="st2" d="M184.4,380.8c-10.2-15.4-17.2-32.6-24.6-49.4c-3.8-8.6-7.7-17.2-12.2-25.5c-6-11-13.2-21.5-22.1-30.3
				c-6.5-6.6-13.8-12.4-21.6-17.3c-14.5-9.3-30.5-15.9-46.2-22.8c-13.7-6-27.4-12.3-39.8-20.7C11.4,210.4,5.5,205.5,0,200v13
				c3,3.5,5.8,7.2,8.4,11c9,13.3,15.6,28,22,42.6c6.7,15.6,13.4,31.3,22.8,45.4c6,9.2,13.2,17.5,21.4,24.7
				c6.8,5.9,14.3,11.1,22.1,15.5c23.8,13.6,50.4,21.5,73.7,35.9c5.8,3.5,11.3,7.5,16.5,11.9h13C194.2,394.2,188.9,387.7,184.4,380.8
				L184.4,380.8z M75,325c-7.7-7.8-14.4-16.6-19.8-26.1c8.3,4.8,16.1,10.5,23.2,17c9,8.5,16.6,18.2,22.8,28.9
				C91.6,339.4,82.8,332.7,75,325z M114.5,352.1c-6.9-14.1-15.3-27.7-26.4-38.9c-11.5-11.8-25.6-20.6-40.3-27.8
				c-1.9-3.9-3.7-7.8-5.5-11.8c12.8,5.7,25.4,12,36.7,20.2c8.7,6.2,16.5,13.6,23.2,22c10.1,12.6,17.4,27,24,41.7
				C122.3,355.8,118.4,354,114.5,352.1L114.5,352.1z M137.5,362.5c-3.7-8.6-7.4-17.1-11.7-25.4c-6.8-13.4-14.9-26.3-25.7-36.9
				c-9.7-9.9-21.4-17.7-33.6-24.2c-9.5-5-19.3-9.3-29.1-13.6c-1.6-3.7-3.2-7.5-4.9-11.2c14.6,6.5,29.4,12.5,43.4,20.2
				c9.9,5.3,19,11.8,27.3,19.4c4.6,4.3,8.8,8.9,12.6,13.8c6.1,8.1,11.5,16.7,16,25.8c6.1,12,11.2,24.5,16.7,36.8
				C144.9,365.8,141.2,364.1,137.5,362.5L137.5,362.5z M160.8,373.2c-0.2-0.1-0.4-0.2-0.5-0.4c-8.5-17.2-15.1-35.3-24.1-52.2
				c-5.4-10.5-12-20.2-19.9-29c-5.2-5.8-11-11-17.2-15.6c-12.2-9-25.9-15.7-39.7-21.9c-10.5-4.7-21.2-9.2-31.6-14.2
				c-0.3-0.2-0.8-0.3-0.9-0.7c-2.2-4.5-4.6-8.9-7-13.2c22.2,13,47.1,20.8,69.5,33.4c11.7,6.4,22.4,14.5,31.6,24.1
				c8.2,8.9,15.2,18.8,20.8,29.5c11.8,21.8,19.4,45.5,32,66.9C169.6,377.6,165.3,375.3,160.8,373.2L160.8,373.2z"/>
			<path class="st2" d="M351.2,314.1c-12.3-6.1-24.1-13.3-34.3-22.5c-11.9-10.6-21.2-23.8-28.5-37.9c-8.9-16.8-15.4-34.7-23.8-51.7
				c-4.5-2.2-9-4.6-13.4-7.2c14,24,22,51,36.4,74.7c4.6,7.8,10.1,15,16.3,21.6c9.3,10,20.5,18,32.4,24.6
				c20.6,11.4,43.1,18.9,63.8,30.2v-6.4c-0.7-1.4-1.4-2.8-2.1-4.1C382.6,327.9,366.5,321.8,351.2,314.1L351.2,314.1z"/>
			<path class="st2" d="M89.6,358c-7.7-4.4-15-9.5-21.7-15.4c-5.3-4.7-10.3-9.9-14.7-15.5c-7.6-9.7-13.7-20.5-19-31.5
				c-9.3-19.3-16.5-39.6-27.5-58c-2.1-3.5-4.4-7-6.8-10.4V243c2.2,3.7,4.3,7.4,6.2,11.2c11.6,22.5,19.4,46.8,33.1,68.2
				c4.8,7.7,10.5,14.9,16.9,21.3c9.9,9.9,21.6,17.8,33.9,24.2c16.7,8.8,34.5,15.4,51.5,23.7c5.2,2.6,10.3,5.3,15.3,8.3h15.7
				c-3.4-2.4-6.8-4.7-10.4-6.8C139.2,379.4,113,371.5,89.6,358z"/>
			<path class="st2" d="M387.2,312.4c-8.4-3.7-16.8-7.3-25-11.5c-13.5-6.8-26.4-15-37-25.8c-10.4-10.1-18.4-22.4-25-35.2
				c-4.6-8.9-8.6-18.1-12.6-27.3c0-0.2-0.2-0.2-0.4-0.3c-3.6-1.6-7.3-3.2-10.9-4.8c5.8,12.9,11,25.9,17.5,38.4
				c7,13.6,15.6,26.5,26.8,37.1c9.6,9.2,20.9,16.6,32.7,22.7c12.7,6.6,26,12,39.1,17.9c-1.7-3.7-3.2-7.3-4.8-11
				C387.6,312.5,387.4,312.4,387.2,312.4L387.2,312.4z"/>
			<path class="st2" d="M87.3,375.9c-12.5-6.3-24.6-13.8-34.8-23.5c-1.4-1.3-2.8-2.8-4.2-4.1c-9-9.3-16.2-20.2-22.2-31.6
				C16.4,298.4,9.5,278.8,0,260.5v19.2c6.9,15,12.9,30.5,20.8,45c6.9,12.8,15.4,24.8,26.2,34.7c7.3,6.7,15.3,12.5,23.9,17.4
				c15.8,9.2,33,15.7,49.6,23.3h19.2c-0.7-0.3-1.3-0.7-2-1C121.1,390.7,103.7,384.3,87.3,375.9L87.3,375.9z"/>
			<path class="st2" d="M343.4,279.3c12,9.1,25.5,15.9,39.2,22c-1.6-3.6-3.3-7.2-5-10.8c-0.2-0.5-0.4-1.1-0.9-1.2
				c-15.3-7.5-30-16.9-41.6-29.4c-10.1-10.6-17.8-23.3-24.3-36.4c-0.1-0.3-0.2-0.6-0.5-0.7c-3.8-1.9-7.7-3.7-11.6-5.4
				c6.2,13.7,12.9,27.3,22.1,39.3C327.2,265.2,334.9,272.8,343.4,279.3L343.4,279.3z"/>
			<path class="st2" d="M369.9,276.1c-10.9-19.2-26.8-35.1-46-46C334.8,249.3,350.7,265.2,369.9,276.1z"/>
			<path class="st2" d="M37.5,362.5c-5.8-5.8-11-12.2-15.5-19.1C13,329.9,6.5,314.9,0,300v20.4c3.3,7.3,6.9,14.5,10.9,21.4
				c5,8.7,10.9,16.8,17.7,24.2c6.9,7.3,14.6,13.6,23,19c7.7,4.9,15.6,9.2,23.9,13c1.4,0.7,2.8,1.3,4.2,2H100
				c-12.1-5.3-24.3-10.6-35.7-17.2C54.5,377.2,45.5,370.4,37.5,362.5z"/>
			<path class="st2" d="M197.1,368.5c-9.8-14.8-16.7-31.3-23.8-47.5c-2.7-6.2-5.5-12.5-8.5-18.6c-0.2-0.4-0.6-0.6-1-0.8
				c-4.3-2.1-8.5-4.4-12.6-6.8c14.1,24.1,22.1,51.3,36.7,75.1c5.2,8.7,11.4,16.7,18.6,23.9c2.1,2.1,4.3,4.2,6.6,6.1h14.2
				c-2.3-1.6-4.5-3.3-6.7-5.1C211.5,387.3,203.5,378.4,197.1,368.5L197.1,368.5z"/>
			<path class="st2" d="M220.4,370.1c-8.7-9.7-15.5-20.9-21.4-32.5c-4.1-8.2-7.8-16.7-11.5-25c-3.7-1.7-7.4-3.3-11.1-4.9
				c5.7,12.8,11,25.9,17.5,38.3c7,13.6,15.7,26.6,26.8,37.2c6.8,6.4,14.3,12.1,22.4,16.9h17.5c-12.2-6.3-23.9-13.8-33.8-23.4
				C224.5,374.4,222.3,372.3,220.4,370.1L220.4,370.1z"/>
			<path class="st2" d="M276.5,389.3c-14.3-7-28-15.6-39.2-27c-11.2-11.2-19.7-24.8-26.6-38.9c-0.1-0.5-0.7-0.6-1.1-0.8
				c-3.6-1.7-7.2-3.4-10.9-5.1c3.8,8.8,8.2,17.4,13,25.7c4.5,7.8,9.9,15.1,15.9,21.8c5.5,6,11.7,11.5,18.4,16.3
				c10.5,7.5,22,13.4,33.7,18.8h2.3c-1.6-3.4-3.2-6.9-4.8-10.2C277.1,389.5,276.7,389.4,276.5,389.3L276.5,389.3z"/>
			<path class="st2" d="M0,339.6v6.5c1.7,0.9,3.4,1.9,5.1,2.9C3.3,345.8,1.6,342.7,0,339.6z"/>
			<path class="st2" d="M245.1,345.4c-6.6-5.8-13.7-10.9-21.2-15.3c4.8,8.3,10.5,16.1,17,23.1c8.5,9,18.3,16.7,29,22.9
				c-4.9-8.4-10.7-16.3-17.3-23.5C250.2,350.2,247.7,347.7,245.1,345.4L245.1,345.4z"/>
			<path class="st2" d="M24.8,374.9C17.4,367.5,9,361.1,0,355.8V366l1.4,1c9,6.1,17.1,13.4,24.1,21.7c3,3.6,5.8,7.4,8.4,11.3h10.2
				C38.8,390.8,32.3,382.4,24.8,374.9L24.8,374.9z"/>
			<path class="st2" d="M0,376.7v11.3c1.5,1.3,2.9,2.6,4.3,3.9c2.7,2.6,5.3,5.3,7.8,8.2h11.3c-2.6-3.5-5.5-6.9-8.5-10.1
				C10.3,385.1,5.3,380.7,0,376.7z"/>
			<path class="st2" d="M54,400h6.4c-3.1-1.6-6.2-3.3-9.3-5.1C52.1,396.6,53.1,398.3,54,400z"/>
		</g>
	</g>
</g>
</svg>
