<?xml version="1.0" encoding="utf-8"?>
<!-- Generator: Adobe Illustrator 24.0.1, SVG Export Plug-In . SVG Version: 6.00 Build 0)  -->
<svg version="1.1" id="Layer_1" xmlns="http://www.w3.org/2000/svg" xmlns:xlink="http://www.w3.org/1999/xlink" x="0px" y="0px"
	 viewBox="0 0 121.8 27.8" style="enable-background:new 0 0 121.8 27.8;" xml:space="preserve">
<style type="text/css">
	.st0{clip-path:url(#SVGID_2_);}
	.st1{clip-path:url(#SVGID_4_);fill:#FFC907;}
	.st2{clip-path:url(#SVGID_6_);}
	.st3{clip-path:url(#SVGID_8_);fill:#FFC907;}
	.st4{clip-path:url(#SVGID_10_);}
	.st5{clip-path:url(#SVGID_12_);fill:#FFC907;}
	.st6{clip-path:url(#SVGID_14_);}
	.st7{clip-path:url(#SVGID_16_);fill:#FFC907;}
	.st8{clip-path:url(#SVGID_18_);}
	.st9{clip-path:url(#SVGID_20_);fill:#FFC907;}
</style>
<g>
	<g>
		<defs>
			<polygon id="SVGID_1_" points="107.4,5 109.6,11.8 116.8,11.8 111,16 113.2,22.8 107.4,18.6 101.6,22.8 103.8,16 98,11.8 
				105.2,11.8 			"/>
		</defs>
		<clipPath id="SVGID_2_">
			<use xlink:href="#SVGID_1_"  style="overflow:visible;"/>
		</clipPath>
		<g class="st0">
			<defs>
				<rect id="SVGID_3_" x="89.9" y="-3.6" width="35" height="35"/>
			</defs>
			<clipPath id="SVGID_4_">
				<use xlink:href="#SVGID_3_"  style="overflow:visible;"/>
			</clipPath>
			<rect x="93" class="st1" width="28.8" height="27.8"/>
		</g>
	</g>
	<g>
		<defs>
			<polygon id="SVGID_5_" points="84.4,5 86.6,11.8 93.8,11.8 88,16 90.2,22.8 84.4,18.6 78.6,22.8 80.8,16 75,11.8 82.2,11.8 			
				"/>
		</defs>
		<clipPath id="SVGID_6_">
			<use xlink:href="#SVGID_5_"  style="overflow:visible;"/>
		</clipPath>
		<g class="st2">
			<defs>
				<rect id="SVGID_7_" x="66.9" y="-3.6" width="35" height="35"/>
			</defs>
			<clipPath id="SVGID_8_">
				<use xlink:href="#SVGID_7_"  style="overflow:visible;"/>
			</clipPath>
			<rect x="70" class="st3" width="28.8" height="27.8"/>
		</g>
	</g>
	<g>
		<defs>
			<polygon id="SVGID_9_" points="37.4,5 39.6,11.8 46.8,11.8 41,16 43.2,22.8 37.4,18.6 31.6,22.8 33.8,16 28,11.8 35.2,11.8 			
				"/>
		</defs>
		<clipPath id="SVGID_10_">
			<use xlink:href="#SVGID_9_"  style="overflow:visible;"/>
		</clipPath>
		<g class="st4">
			<defs>
				<rect id="SVGID_11_" x="19.9" y="-3.6" width="35" height="35"/>
			</defs>
			<clipPath id="SVGID_12_">
				<use xlink:href="#SVGID_11_"  style="overflow:visible;"/>
			</clipPath>
			<rect x="23" class="st5" width="28.8" height="27.8"/>
		</g>
	</g>
	<g>
		<defs>
			<polygon id="SVGID_13_" points="61.4,5 63.6,11.8 70.8,11.8 65,16 67.2,22.8 61.4,18.6 55.6,22.8 57.8,16 52,11.8 59.2,11.8 			
				"/>
		</defs>
		<clipPath id="SVGID_14_">
			<use xlink:href="#SVGID_13_"  style="overflow:visible;"/>
		</clipPath>
		<g class="st6">
			<defs>
				<rect id="SVGID_15_" x="43.9" y="-3.6" width="35" height="35"/>
			</defs>
			<clipPath id="SVGID_16_">
				<use xlink:href="#SVGID_15_"  style="overflow:visible;"/>
			</clipPath>
			<rect x="47" class="st7" width="28.8" height="27.8"/>
		</g>
	</g>
	<g>
		<defs>
			<polygon id="SVGID_17_" points="14.4,5 16.6,11.8 23.8,11.8 18,16 20.2,22.8 14.4,18.6 8.6,22.8 10.8,16 5,11.8 12.2,11.8 			"/>
		</defs>
		<clipPath id="SVGID_18_">
			<use xlink:href="#SVGID_17_"  style="overflow:visible;"/>
		</clipPath>
		<g class="st8">
			<defs>
				<rect id="SVGID_19_" x="-3.1" y="-3.6" width="35" height="35"/>
			</defs>
			<clipPath id="SVGID_20_">
				<use xlink:href="#SVGID_19_"  style="overflow:visible;"/>
			</clipPath>
			<rect x="0" class="st9" width="28.8" height="27.8"/>
		</g>
	</g>
</g>
</svg>
